solid Created by Gmsh
facet normal -1 0 0
  outer loop
    vertex -1 -1 19
    vertex -1 19 -1
    vertex -1 -1 -1
  endloop
endfacet
facet normal -1 0 0
  outer loop
    vertex -1 -1 19
    vertex -1 19 19
    vertex -1 19 -1
  endloop
endfacet
facet normal 1 0 0
  outer loop
    vertex 19 -1 19
    vertex 19 -1 -1
    vertex 19 19 -1
  endloop
endfacet
facet normal 1 -0 0
  outer loop
    vertex 19 -1 19
    vertex 19 19 -1
    vertex 19 19 19
  endloop
endfacet
facet normal 0 -1 -0
  outer loop
    vertex 19 -1 19
    vertex -1 -1 -1
    vertex 19 -1 -1
  endloop
endfacet
facet normal -0 -1 0
  outer loop
    vertex 19 -1 19
    vertex -1 -1 19
    vertex -1 -1 -1
  endloop
endfacet
facet normal 0 1 0
  outer loop
    vertex 19 19 19
    vertex 19 19 -1
    vertex -1 19 -1
  endloop
endfacet
facet normal 0 1 0
  outer loop
    vertex 19 19 19
    vertex -1 19 -1
    vertex -1 19 19
  endloop
endfacet
facet normal -0 0 -1
  outer loop
    vertex 19 19 -1
    vertex -1 -1 -1
    vertex -1 19 -1
  endloop
endfacet
facet normal 0 -0 -1
  outer loop
    vertex 19 19 -1
    vertex 19 -1 -1
    vertex -1 -1 -1
  endloop
endfacet

endsolid Created by Gmsh
