solid Created by Gmsh
facet normal -1 0 0
  outer loop
    vertex -1 -1 9.5
    vertex -1 9.5 -1
    vertex -1 -1 -1
  endloop
endfacet
facet normal -1 0 0
  outer loop
    vertex -1 -1 9.5
    vertex -1 9.5 9.5
    vertex -1 9.5 -1
  endloop
endfacet
facet normal 1 0 0
  outer loop
    vertex 9.5 -1 9.5
    vertex 9.5 -1 -1
    vertex 9.5 9.5 -1
  endloop
endfacet
facet normal 1 -0 0
  outer loop
    vertex 9.5 -1 9.5
    vertex 9.5 9.5 -1
    vertex 9.5 9.5 9.5
  endloop
endfacet
facet normal 0 -1 -0
  outer loop
    vertex 9.5 -1 9.5
    vertex -1 -1 -1
    vertex 9.5 -1 -1
  endloop
endfacet
facet normal -0 -1 0
  outer loop
    vertex 9.5 -1 9.5
    vertex -1 -1 9.5
    vertex -1 -1 -1
  endloop
endfacet
facet normal 0 1 0
  outer loop
    vertex 9.5 9.5 9.5
    vertex 9.5 9.5 -1
    vertex -1 9.5 -1
  endloop
endfacet
facet normal 0 1 0
  outer loop
    vertex 9.5 9.5 9.5
    vertex -1 9.5 -1
    vertex -1 9.5 9.5
  endloop
endfacet
facet normal -0 0 -1
  outer loop
    vertex 9.5 9.5 -1
    vertex -1 -1 -1
    vertex -1 9.5 -1
  endloop
endfacet
facet normal 0 -0 -1
  outer loop
    vertex 9.5 9.5 -1
    vertex 9.5 -1 -1
    vertex -1 -1 -1
  endloop
endfacet

endsolid Created by Gmsh
