solid Visualization Toolkit generated SLA File
 facet normal -0.7730104948888864 4.0988978128741428e-08 -0.63439323356388155
  outer loop
   vertex -35.355339050292969 1.5454309050255688e-06 -35.355339050292969
   vertex -41.573478698730469 1.2142373861934175e-06 -27.778512954711914
   vertex -41.573478698730469 30 -27.778511047363281
  endloop
 endfacet
 facet normal -0.77301057320391975 0 -0.6343931381367135
  outer loop
   vertex -35.355339050292969 1.5454309050255688e-06 -35.355339050292969
   vertex -41.573478698730469 30 -27.778511047363281
   vertex -35.355339050292969 30 -35.355339050292969
  endloop
 endfacet
 facet normal 0 0 -1
  outer loop
   vertex 50 0 0
   vertex 34.788639068603516 0 0
   vertex 34.788639068603516 30 0
  endloop
 endfacet
 facet normal 0 0 -1
  outer loop
   vertex 50 0 0
   vertex 34.788639068603516 30 0
   vertex 50 30 0
  endloop
 endfacet
 facet normal 0.95694034051725052 9.3778362682000443e-09 0.29028466148029319
  outer loop
   vertex 46.193973541259766 -8.3638127534868545e-07 19.134172439575195
   vertex 49.039260864257812 -4.2638345121304155e-07 9.7545166015625
   vertex 49.039260864257812 30 9.7545156478881836
  endloop
 endfacet
 facet normal 0.95694034871597289 0 0.29028463445272545
  outer loop
   vertex 46.193973541259766 -8.3638127534868545e-07 19.134172439575195
   vertex 49.039260864257812 30 9.7545156478881836
   vertex 46.193973541259766 30 19.134172439575195
  endloop
 endfacet
 facet normal -0.634393233563883 0 -0.77301049488888596
  outer loop
   vertex -27.778512954711914 1.8172345335187856e-06 -41.573478698730469
   vertex -35.355339050292969 1.5454309050255688e-06 -35.355339050292969
   vertex -35.355339050292969 30 -35.355339050292969
  endloop
 endfacet
 facet normal -0.634393233563883 0 -0.77301049488888607
  outer loop
   vertex -27.778512954711914 1.8172345335187856e-06 -41.573478698730469
   vertex -35.355339050292969 30 -35.355339050292969
   vertex -27.778512954711914 30 -41.573478698730469
  endloop
 endfacet
 facet normal 1 -0 0
  outer loop
   vertex 34.788639068603516 0 0
   vertex 34.788639068603516 0 -10.062902450561523
   vertex 34.788639068603516 30 -10.06290340423584
  endloop
 endfacet
 facet normal 1 0 -0
  outer loop
   vertex 34.788639068603516 0 0
   vertex 34.788639068603516 30 -10.06290340423584
   vertex 34.788639068603516 30 0
  endloop
 endfacet
 facet normal 0.88192132482132679 -0 0.47139662368900748
  outer loop
   vertex 41.573478698730469 -1.2142373861934175e-06 27.778512954711914
   vertex 46.193973541259766 -8.3638127534868545e-07 19.134172439575195
   vertex 46.193973541259766 30 19.134172439575195
  endloop
 endfacet
 facet normal 0.88192136806284238 -3.0457549777378701e-08 0.47139654278978693
  outer loop
   vertex 41.573478698730469 -1.2142373861934175e-06 27.778512954711914
   vertex 46.193973541259766 30 19.134172439575195
   vertex 41.573478698730469 30.000349502563477 27.778514862060547
  endloop
 endfacet
 facet normal -0.47139662368900759 0 -0.8819213248213269
  outer loop
   vertex -19.134172439575195 2.0192028387100436e-06 -46.193973541259766
   vertex -27.778512954711914 1.8172345335187856e-06 -41.573478698730469
   vertex -27.778512954711914 30 -41.573478698730469
  endloop
 endfacet
 facet normal -0.47139662368900748 0 -0.88192132482132679
  outer loop
   vertex -19.134172439575195 2.0192028387100436e-06 -46.193973541259766
   vertex -27.778512954711914 30 -41.573478698730469
   vertex -19.134172439575195 30 -46.193973541259766
  endloop
 endfacet
 facet normal -0.098017454227432202 0 0.99518469575590496
  outer loop
   vertex -9.7545166015625 -2.1435741928144125e-06 49.039260864257812
   vertex 0 -2.1855694285477512e-06 50
   vertex 0 30.000349502563477 50
  endloop
 endfacet
 facet normal -0.098017454227432216 0 0.99518469575590507
  outer loop
   vertex -9.7545166015625 -2.1435741928144125e-06 49.039260864257812
   vertex 0 30.000349502563477 50
   vertex -9.7545166015625 30.000349502563477 49.039260864257812
  endloop
 endfacet
 facet normal 0.7730104948888864 -4.0988980053510007e-08 0.63439323356388155
  outer loop
   vertex 35.355339050292969 -1.5454309050255688e-06 35.355339050292969
   vertex 41.573478698730469 -1.2142373861934175e-06 27.778512954711914
   vertex 41.573478698730469 30.000349502563477 27.778514862060547
  endloop
 endfacet
 facet normal 0.77301041657381686 0 0.63439332899107148
  outer loop
   vertex 35.355339050292969 -1.5454309050255688e-06 35.355339050292969
   vertex 41.573478698730469 30.000349502563477 27.778514862060547
   vertex 35.355339050292969 30.000349502563477 35.355339050292969
  endloop
 endfacet
 facet normal -0.29028466148029286 0 -0.95694034051725063
  outer loop
   vertex -9.7545166015625 2.1435741928144125e-06 -49.039260864257812
   vertex -19.134172439575195 2.0192028387100436e-06 -46.193973541259766
   vertex -19.134172439575195 30 -46.193973541259766
  endloop
 endfacet
 facet normal -0.29028466148029286 0 -0.95694034051725074
  outer loop
   vertex -9.7545166015625 2.1435741928144125e-06 -49.039260864257812
   vertex -19.134172439575195 30 -46.193973541259766
   vertex -9.7545166015625 30 -49.039260864257812
  endloop
 endfacet
 facet normal -0.2902846614802928 0 0.95694034051725074
  outer loop
   vertex -19.134172439575195 -2.0192028387100436e-06 46.193973541259766
   vertex -9.7545166015625 -2.1435741928144125e-06 49.039260864257812
   vertex -9.7545166015625 30.000349502563477 49.039260864257812
  endloop
 endfacet
 facet normal -0.2902846614802928 0 0.95694034051725074
  outer loop
   vertex -19.134172439575195 -2.0192028387100436e-06 46.193973541259766
   vertex -9.7545166015625 30.000349502563477 49.039260864257812
   vertex -19.134172439575195 30.000349502563477 46.193973541259766
  endloop
 endfacet
 facet normal 0.63439323356388311 -0 0.77301049488888607
  outer loop
   vertex 27.778512954711914 -1.8172345335187856e-06 41.573478698730469
   vertex 35.355339050292969 -1.5454309050255688e-06 35.355339050292969
   vertex 35.355339050292969 30.000349502563477 35.355339050292969
  endloop
 endfacet
 facet normal 0.634393233563883 0 0.77301049488888607
  outer loop
   vertex 27.778512954711914 -1.8172345335187856e-06 41.573478698730469
   vertex 35.355339050292969 30.000349502563477 35.355339050292969
   vertex 27.778512954711914 30.000349502563477 41.573478698730469
  endloop
 endfacet
 facet normal -0.09801745422743223 0 -0.99518469575590507
  outer loop
   vertex 0 2.1855694285477512e-06 -50
   vertex -9.7545166015625 2.1435741928144125e-06 -49.039260864257812
   vertex -9.7545166015625 30 -49.039260864257812
  endloop
 endfacet
 facet normal -0.098017454227432216 0 -0.99518469575590496
  outer loop
   vertex 0 2.1855694285477512e-06 -50
   vertex -9.7545166015625 30 -49.039260864257812
   vertex 0 30 -50
  endloop
 endfacet
 facet normal -0.47139662368900753 0 0.88192132482132679
  outer loop
   vertex -27.778512954711914 -1.8172345335187856e-06 41.573478698730469
   vertex -19.134172439575195 -2.0192028387100436e-06 46.193973541259766
   vertex -19.134172439575195 30.000349502563477 46.193973541259766
  endloop
 endfacet
 facet normal -0.47139662368900753 0 0.8819213248213269
  outer loop
   vertex -27.778512954711914 -1.8172345335187856e-06 41.573478698730469
   vertex -19.134172439575195 30.000349502563477 46.193973541259766
   vertex -27.778512954711914 30.000349502563477 41.573478698730469
  endloop
 endfacet
 facet normal 0.47139662368900753 -0 0.8819213248213269
  outer loop
   vertex 19.134172439575195 -2.0192028387100436e-06 46.193973541259766
   vertex 27.778512954711914 -1.8172345335187856e-06 41.573478698730469
   vertex 27.778512954711914 30.000349502563477 41.573478698730469
  endloop
 endfacet
 facet normal 0.47139662368900753 0 0.88192132482132679
  outer loop
   vertex 19.134172439575195 -2.0192028387100436e-06 46.193973541259766
   vertex 27.778512954711914 30.000349502563477 41.573478698730469
   vertex 19.134172439575195 30.000349502563477 46.193973541259766
  endloop
 endfacet
 facet normal 0.098017454227432216 0 -0.99518469575590496
  outer loop
   vertex 9.7545166015625 2.1435741928144125e-06 -49.039260864257812
   vertex 0 2.1855694285477512e-06 -50
   vertex 0 30 -50
  endloop
 endfacet
 facet normal 0.09801745422743223 0 -0.99518469575590507
  outer loop
   vertex 9.7545166015625 2.1435741928144125e-06 -49.039260864257812
   vertex 0 30 -50
   vertex 9.7545166015625 30 -49.039260864257812
  endloop
 endfacet
 facet normal -0.634393233563883 0 0.77301049488888607
  outer loop
   vertex -35.355339050292969 -1.5454309050255688e-06 35.355339050292969
   vertex -27.778512954711914 -1.8172345335187856e-06 41.573478698730469
   vertex -27.778512954711914 30.000349502563477 41.573478698730469
  endloop
 endfacet
 facet normal -0.63439323356388311 0 0.77301049488888607
  outer loop
   vertex -35.355339050292969 -1.5454309050255688e-06 35.355339050292969
   vertex -27.778512954711914 30.000349502563477 41.573478698730469
   vertex -35.355339050292969 30.000349502563477 35.355339050292969
  endloop
 endfacet
 facet normal 0.2902846614802928 -0 0.95694034051725074
  outer loop
   vertex 9.7545166015625 -2.1435741928144125e-06 49.039260864257812
   vertex 19.134172439575195 -2.0192028387100436e-06 46.193973541259766
   vertex 19.134172439575195 30.000349502563477 46.193973541259766
  endloop
 endfacet
 facet normal 0.2902846614802928 0 0.95694034051725074
  outer loop
   vertex 9.7545166015625 -2.1435741928144125e-06 49.039260864257812
   vertex 19.134172439575195 30.000349502563477 46.193973541259766
   vertex 9.7545166015625 30.000349502563477 49.039260864257812
  endloop
 endfacet
 facet normal 0.29028466148029286 0 -0.95694034051725074
  outer loop
   vertex 19.134172439575195 2.0192028387100436e-06 -46.193973541259766
   vertex 9.7545166015625 2.1435741928144125e-06 -49.039260864257812
   vertex 9.7545166015625 30 -49.039260864257812
  endloop
 endfacet
 facet normal 0.29028466148029286 0 -0.95694034051725063
  outer loop
   vertex 19.134172439575195 2.0192028387100436e-06 -46.193973541259766
   vertex 9.7545166015625 30 -49.039260864257812
   vertex 19.134172439575195 30 -46.193973541259766
  endloop
 endfacet
 facet normal -0.77301049488888607 0 0.63439323356388311
  outer loop
   vertex -41.573478698730469 -1.2142373861934175e-06 27.778512954711914
   vertex -35.355339050292969 -1.5454309050255688e-06 35.355339050292969
   vertex -35.355339050292969 30.000349502563477 35.355339050292969
  endloop
 endfacet
 facet normal -0.77301041657381631 -4.098898621918606e-08 0.63439332899107104
  outer loop
   vertex -41.573478698730469 -1.2142373861934175e-06 27.778512954711914
   vertex -35.355339050292969 30.000349502563477 35.355339050292969
   vertex -41.573478698730469 30.000349502563477 27.778514862060547
  endloop
 endfacet
 facet normal 0.098017454227432216 -0 0.99518469575590507
  outer loop
   vertex 0 -2.1855694285477512e-06 50
   vertex 9.7545166015625 -2.1435741928144125e-06 49.039260864257812
   vertex 9.7545166015625 30.000349502563477 49.039260864257812
  endloop
 endfacet
 facet normal 0.098017454227432202 0 0.99518469575590496
  outer loop
   vertex 0 -2.1855694285477512e-06 50
   vertex 9.7545166015625 30.000349502563477 49.039260864257812
   vertex 0 30.000349502563477 50
  endloop
 endfacet
 facet normal 0.47139662368900748 0 -0.88192132482132679
  outer loop
   vertex 27.778512954711914 1.8172345335187856e-06 -41.573478698730469
   vertex 19.134172439575195 2.0192028387100436e-06 -46.193973541259766
   vertex 19.134172439575195 30 -46.193973541259766
  endloop
 endfacet
 facet normal 0.47139662368900759 0 -0.8819213248213269
  outer loop
   vertex 27.778512954711914 1.8172345335187856e-06 -41.573478698730469
   vertex 19.134172439575195 30 -46.193973541259766
   vertex 27.778512954711914 30 -41.573478698730469
  endloop
 endfacet
 facet normal -0.8819213248213269 -3.0457555004383516e-08 0.47139662368900626
  outer loop
   vertex -46.193973541259766 -8.3638127534868545e-07 19.134172439575195
   vertex -41.573478698730469 -1.2142373861934175e-06 27.778512954711914
   vertex -41.573478698730469 30.000349502563477 27.778514862060547
  endloop
 endfacet
 facet normal -0.88192136806284005 0 0.47139654278979248
  outer loop
   vertex -46.193973541259766 -8.3638127534868545e-07 19.134172439575195
   vertex -41.573478698730469 30.000349502563477 27.778514862060547
   vertex -46.193973541259766 30 19.134172439575195
  endloop
 endfacet
 facet normal -1 0 0
  outer loop
   vertex 0 2.1855694285477512e-06 -50
   vertex 0 2.1855694285477512e-06 -34.983654022216797
   vertex 0 30 -34.983654022216797
  endloop
 endfacet
 facet normal -1 0 -0
  outer loop
   vertex 0 2.1855694285477512e-06 -50
   vertex 0 30 -34.983654022216797
   vertex 0 30 -50
  endloop
 endfacet
 facet normal 0.634393233563883 0 -0.77301049488888607
  outer loop
   vertex 35.355339050292969 1.5454309050255688e-06 -35.355339050292969
   vertex 27.778512954711914 1.8172345335187856e-06 -41.573478698730469
   vertex 27.778512954711914 30 -41.573478698730469
  endloop
 endfacet
 facet normal 0.634393233563883 0 -0.77301049488888596
  outer loop
   vertex 35.355339050292969 1.5454309050255688e-06 -35.355339050292969
   vertex 27.778512954711914 30 -41.573478698730469
   vertex 35.355339050292969 30 -35.355339050292969
  endloop
 endfacet
 facet normal -0.95694034051725074 0 0.2902846614802928
  outer loop
   vertex -49.039260864257812 -4.2638345121304155e-07 9.7545166015625
   vertex -46.193973541259766 -8.3638127534868545e-07 19.134172439575195
   vertex -46.193973541259766 30 19.134172439575195
  endloop
 endfacet
 facet normal -0.95694034871597278 9.3778353950567523e-09 0.2902846344527254
  outer loop
   vertex -49.039260864257812 -4.2638345121304155e-07 9.7545166015625
   vertex -46.193973541259766 30 19.134172439575195
   vertex -49.039260864257812 30 9.7545156478881836
  endloop
 endfacet
 facet normal 0 0 -1
  outer loop
   vertex 0 2.1855694285477512e-06 -34.983654022216797
   vertex -9.9458894729614258 2.1855694285477512e-06 -34.983654022216797
   vertex -9.9458894729614258 30 -34.983654022216797
  endloop
 endfacet
 facet normal 0 0 -1
  outer loop
   vertex 0 2.1855694285477512e-06 -34.983654022216797
   vertex -9.9458894729614258 30 -34.983654022216797
   vertex 0 30 -34.983654022216797
  endloop
 endfacet
 facet normal 0.77301049488888596 0 -0.634393233563883
  outer loop
   vertex 41.573478698730469 1.2142373861934175e-06 -27.778512954711914
   vertex 35.355339050292969 1.5454309050255688e-06 -35.355339050292969
   vertex 35.355339050292969 30 -35.355339050292969
  endloop
 endfacet
 facet normal 0.7730105732039193 4.0988971963067029e-08 -0.63439313813671305
  outer loop
   vertex 41.573478698730469 1.2142373861934175e-06 -27.778512954711914
   vertex 35.355339050292969 30 -35.355339050292969
   vertex 41.573478698730469 30 -27.778511047363281
  endloop
 endfacet
 facet normal -0.99518469575590496 3.1665181084087518e-09 0.098017454227432341
  outer loop
   vertex -50 0 0
   vertex -49.039260864257812 -4.2638345121304155e-07 9.7545166015625
   vertex -49.039260864257812 30 9.7545156478881836
  endloop
 endfacet
 facet normal -0.99518469482113459 0 0.098017463718283585
  outer loop
   vertex -50 0 0
   vertex -49.039260864257812 30 9.7545156478881836
   vertex -50 30 0
  endloop
 endfacet
 facet normal 0 -0 1
  outer loop
   vertex -50 0 0
   vertex -34.983657836914062 0 0
   vertex -34.983657836914062 30 0
  endloop
 endfacet
 facet normal 0 0 1
  outer loop
   vertex -50 0 0
   vertex -34.983657836914062 30 0
   vertex -50 30 0
  endloop
 endfacet
 facet normal 0.8819213248213269 3.0457553574151662e-08 -0.47139662368900631
  outer loop
   vertex 46.193973541259766 8.3638127534868545e-07 -19.134172439575195
   vertex 41.573478698730469 1.2142373861934175e-06 -27.778512954711914
   vertex 41.573478698730469 30 -27.778511047363281
  endloop
 endfacet
 facet normal 0.88192128157979122 0 -0.4713967045882464
  outer loop
   vertex 46.193973541259766 8.3638127534868545e-07 -19.134172439575195
   vertex 41.573478698730469 30 -27.778511047363281
   vertex 46.193973541259766 30 -19.134172439575195
  endloop
 endfacet
 facet normal -0.99518469575590507 0 -0.098017454227432216
  outer loop
   vertex -49.039260864257812 4.2638345121304155e-07 -9.7545166015625
   vertex -50 0 0
   vertex -50 30 0
  endloop
 endfacet
 facet normal -0.99518469575590485 0 -0.098017454227432216
  outer loop
   vertex -49.039260864257812 4.2638345121304155e-07 -9.7545166015625
   vertex -50 30 0
   vertex -49.039260864257812 30 -9.7545166015625
  endloop
 endfacet
 facet normal -1 0 -0
  outer loop
   vertex -34.983657836914062 0 0
   vertex -34.983657836914062 2.8421709430404007e-14 9.9458913803100586
   vertex -34.983657836914062 30 9.9458904266357422
  endloop
 endfacet
 facet normal -1 0 -0
  outer loop
   vertex -34.983657836914062 0 0
   vertex -34.983657836914062 30 9.9458904266357422
   vertex -34.983657836914062 30 0
  endloop
 endfacet
 facet normal 0.95694034051725074 0 -0.29028466148029286
  outer loop
   vertex 49.039260864257812 4.2638345121304155e-07 -9.7545166015625
   vertex 46.193973541259766 8.3638127534868545e-07 -19.134172439575195
   vertex 46.193973541259766 30 -19.134172439575195
  endloop
 endfacet
 facet normal 0.95694034051725063 0 -0.29028466148029286
  outer loop
   vertex 49.039260864257812 4.2638345121304155e-07 -9.7545166015625
   vertex 46.193973541259766 30 -19.134172439575195
   vertex 49.039260864257812 30 -9.7545166015625
  endloop
 endfacet
 facet normal -0.95694034051725063 0 -0.29028466148029286
  outer loop
   vertex -46.193973541259766 8.3638127534868545e-07 -19.134172439575195
   vertex -49.039260864257812 4.2638345121304155e-07 -9.7545166015625
   vertex -49.039260864257812 30 -9.7545166015625
  endloop
 endfacet
 facet normal -0.95694034051725074 0 -0.29028466148029286
  outer loop
   vertex -46.193973541259766 8.3638127534868545e-07 -19.134172439575195
   vertex -49.039260864257812 30 -9.7545166015625
   vertex -46.193973541259766 30 -19.134172439575195
  endloop
 endfacet
 facet normal 1 0 0
  outer loop
   vertex 0 -2.1855694285477512e-06 50
   vertex 0 -2.1855694285477512e-06 34.086574554443359
   vertex 0 30.000349502563477 34.086574554443359
  endloop
 endfacet
 facet normal 1 0 -0
  outer loop
   vertex 0 -2.1855694285477512e-06 50
   vertex 0 30.000349502563477 34.086574554443359
   vertex 0 30.000349502563477 50
  endloop
 endfacet
 facet normal 0.99518469575590485 0 -0.098017454227432216
  outer loop
   vertex 50 0 0
   vertex 49.039260864257812 4.2638345121304155e-07 -9.7545166015625
   vertex 49.039260864257812 30 -9.7545166015625
  endloop
 endfacet
 facet normal 0.99518469575590507 0 -0.098017454227432216
  outer loop
   vertex 50 0 0
   vertex 49.039260864257812 30 -9.7545166015625
   vertex 50 30 0
  endloop
 endfacet
 facet normal -0.88192132482132679 0 -0.47139662368900759
  outer loop
   vertex -41.573478698730469 1.2142373861934175e-06 -27.778512954711914
   vertex -46.193973541259766 8.3638127534868545e-07 -19.134172439575195
   vertex -46.193973541259766 30 -19.134172439575195
  endloop
 endfacet
 facet normal -0.88192128157979355 3.0457558801157224e-08 -0.47139670458824096
  outer loop
   vertex -41.573478698730469 1.2142373861934175e-06 -27.778512954711914
   vertex -46.193973541259766 30 -19.134172439575195
   vertex -41.573478698730469 30 -27.778511047363281
  endloop
 endfacet
 facet normal 0 -0 1
  outer loop
   vertex 0 -2.1855694285477512e-06 34.086574554443359
   vertex 9.9458913803100586 -2.1855694285477512e-06 34.086574554443359
   vertex 9.9458913803100586 30.000349502563477 34.086574554443359
  endloop
 endfacet
 facet normal 0 0 1
  outer loop
   vertex 0 -2.1855694285477512e-06 34.086574554443359
   vertex 9.9458913803100586 30.000349502563477 34.086574554443359
   vertex 0 30.000349502563477 34.086574554443359
  endloop
 endfacet
 facet normal 0.99518469575590507 -0 0.098017454227432216
  outer loop
   vertex 49.039260864257812 -4.2638345121304155e-07 9.7545166015625
   vertex 50 0 0
   vertex 50 30 0
  endloop
 endfacet
 facet normal 0.99518469482113459 3.1665184150169221e-09 0.098017463718283571
  outer loop
   vertex 49.039260864257812 -4.2638345121304155e-07 9.7545166015625
   vertex 50 30 0
   vertex 49.039260864257812 30 9.7545156478881836
  endloop
 endfacet
endsolid
