solid Visualization Toolkit generated SLA File
 facet normal -0 -1 -0
  outer loop
   vertex 258.57806396484375 20.84356689453125 -70
   vertex 258.57806396484375 20.84356689453125 -37.99993896484375
   vertex 19.180915832519531 20.84356689453125 -37.99993896484375
  endloop
 endfacet
 facet normal 0 -1 0
  outer loop
   vertex 258.57806396484375 20.84356689453125 -70
   vertex 19.180915832519531 20.84356689453125 -37.99993896484375
   vertex 19.180915832519531 20.84356689453125 -70
  endloop
 endfacet
 facet normal -1 0 0
  outer loop
   vertex 19.180915832519531 20.84356689453125 -70
   vertex 19.180915832519531 20.84356689453125 -37.99993896484375
   vertex 19.180915832519531 260.337158203125 -37.99993896484375
  endloop
 endfacet
 facet normal -1 0 -0
  outer loop
   vertex 19.180915832519531 20.84356689453125 -70
   vertex 19.180915832519531 260.337158203125 -37.99993896484375
   vertex 19.180915832519531 260.337158203125 -70
  endloop
 endfacet
 facet normal -0 -0 -1
  outer loop
   vertex 19.180915832519531 260.337158203125 -70
   vertex 258.57806396484375 260.337158203125 -70
   vertex 258.57806396484375 20.84356689453125 -70
  endloop
 endfacet
 facet normal 0 0 -1
  outer loop
   vertex 19.180915832519531 260.337158203125 -70
   vertex 258.57806396484375 20.84356689453125 -70
   vertex 19.180915832519531 20.84356689453125 -70
  endloop
 endfacet
 facet normal 1 0 0
  outer loop
   vertex 258.57806396484375 260.337158203125 -70
   vertex 258.57806396484375 260.337158203125 -37.99993896484375
   vertex 258.57806396484375 20.84356689453125 -37.99993896484375
  endloop
 endfacet
 facet normal 1 0 0
  outer loop
   vertex 258.57806396484375 260.337158203125 -70
   vertex 258.57806396484375 20.84356689453125 -37.99993896484375
   vertex 258.57806396484375 20.84356689453125 -70
  endloop
 endfacet
 facet normal -0 1 0
  outer loop
   vertex 19.180915832519531 260.337158203125 -70
   vertex 19.180915832519531 260.337158203125 -37.99993896484375
   vertex 258.57806396484375 260.337158203125 -37.99993896484375
  endloop
 endfacet
 facet normal 0 1 0
  outer loop
   vertex 19.180915832519531 260.337158203125 -70
   vertex 258.57806396484375 260.337158203125 -37.99993896484375
   vertex 258.57806396484375 260.337158203125 -70
  endloop
 endfacet
endsolid
