solid Created by Gmsh
facet normal -1 0 0
  outer loop
    vertex -1 -1 27
    vertex -1 27 -1
    vertex -1 -1 -1
  endloop
endfacet
facet normal -1 0 0
  outer loop
    vertex -1 -1 27
    vertex -1 27 27
    vertex -1 27 -1
  endloop
endfacet
facet normal 1 0 0
  outer loop
    vertex 27 -1 27
    vertex 27 -1 -1
    vertex 27 27 -1
  endloop
endfacet
facet normal 1 -0 0
  outer loop
    vertex 27 -1 27
    vertex 27 27 -1
    vertex 27 27 27
  endloop
endfacet
facet normal 0 -1 -0
  outer loop
    vertex 27 -1 27
    vertex -1 -1 -1
    vertex 27 -1 -1
  endloop
endfacet
facet normal -0 -1 0
  outer loop
    vertex 27 -1 27
    vertex -1 -1 27
    vertex -1 -1 -1
  endloop
endfacet
facet normal 0 1 0
  outer loop
    vertex 27 27 27
    vertex 27 27 -1
    vertex -1 27 -1
  endloop
endfacet
facet normal 0 1 0
  outer loop
    vertex 27 27 27
    vertex -1 27 -1
    vertex -1 27 27
  endloop
endfacet
facet normal -0 0 -1
  outer loop
    vertex 27 27 -1
    vertex -1 -1 -1
    vertex -1 27 -1
  endloop
endfacet
facet normal 0 -0 -1
  outer loop
    vertex 27 27 -1
    vertex 27 -1 -1
    vertex -1 -1 -1
  endloop
endfacet

endsolid Created by Gmsh
