solid Visualization Toolkit generated SLA File
 facet normal 0.064528575532010607 0.6551374489565791 -0.75274895278205145
  outer loop
   vertex 150 160 -150
   vertex 149.99993896484375 298.13623046875 -29.7763671875
   vertex 178.89993286132812 295.289794921875 -29.776275634765625
  endloop
 endfacet
 facet normal 0.064527878125428428 0.65513756291975911 -0.75274891338094185
  outer loop
   vertex 150 160 -150
   vertex 178.89993286132812 295.289794921875 -29.776275634765625
   vertex 151.95089721679688 159.80784606933594 -150
  endloop
 endfacet
 facet normal 0.19109347642044933 0.62996213677792501 -0.75274895516084117
  outer loop
   vertex 151.95089721679688 159.80784606933594 -150
   vertex 178.89993286132812 295.289794921875 -29.776275634765625
   vertex 206.6893310546875 286.86001586914062 -29.7763671875
  endloop
 endfacet
 facet normal 0.19109314686982598 0.62996226019154478 -0.75274893553810329
  outer loop
   vertex 151.95089721679688 159.80784606933594 -150
   vertex 206.6893310546875 286.86001586914062 -29.7763671875
   vertex 153.82682800292969 159.23880004882812 -150
  endloop
 endfacet
 facet normal 0.31032880205293012 0.58057312500912739 -0.75274888318318323
  outer loop
   vertex 153.82682800292969 159.23880004882812 -150
   vertex 206.6893310546875 286.86001586914062 -29.7763671875
   vertex 232.300048828125 273.17071533203125 -29.776229858398438
  endloop
 endfacet
 facet normal 0.3103253897345109 0.58057523914483156 -0.75274865936648827
  outer loop
   vertex 153.82682800292969 159.23880004882812 -150
   vertex 232.300048828125 273.17071533203125 -29.776229858398438
   vertex 155.55569458007812 158.314697265625 -150
  endloop
 endfacet
 facet normal 0.41762185987840478 0.50888223158742862 -0.7527488668382708
  outer loop
   vertex 155.55569458007812 158.314697265625 -150
   vertex 232.300048828125 273.17071533203125 -29.776229858398438
   vertex 254.74813842773438 254.74813842773438 -29.776374816894531
  endloop
 endfacet
 facet normal 0.41762218765685538 0.50888192560400503 -0.75274889184259985
  outer loop
   vertex 155.55569458007812 158.314697265625 -150
   vertex 254.74813842773438 254.74813842773438 -29.776374816894531
   vertex 157.07107543945312 157.07107543945312 -150
  endloop
 endfacet
 facet normal 0.50888113153080705 0.41762305214018225 -0.75274894904811662
  outer loop
   vertex 157.07107543945312 157.07107543945312 -150
   vertex 254.74813842773438 254.74813842773438 -29.776374816894531
   vertex 273.1707763671875 232.30001831054688 -29.776268005371094
  endloop
 endfacet
 facet normal 0.50888181716086978 0.41762209866124145 -0.75274901452797094
  outer loop
   vertex 157.07107543945312 157.07107543945312 -150
   vertex 273.1707763671875 232.30001831054688 -29.776268005371094
   vertex 158.314697265625 155.55569458007812 -150
  endloop
 endfacet
 facet normal 0.58057424781843081 0.31032658602783814 -0.75274893076933014
  outer loop
   vertex 158.314697265625 155.55569458007812 -150
   vertex 273.1707763671875 232.30001831054688 -29.776268005371094
   vertex 286.86004638671875 206.68925476074219 -29.776351928710938
  endloop
 endfacet
 facet normal 0.58057487967280086 0.31032519759180399 -0.75274901582965925
  outer loop
   vertex 158.314697265625 155.55569458007812 -150
   vertex 286.86004638671875 206.68925476074219 -29.776351928710938
   vertex 159.23880004882812 153.82682800292969 -150
  endloop
 endfacet
 facet normal 0.62996278882863621 0.19109178191931761 -0.75274883963653305
  outer loop
   vertex 159.23880004882812 153.82682800292969 -150
   vertex 286.86004638671875 206.68925476074219 -29.776351928710938
   vertex 295.28976440429688 178.89993286132812 -29.776222229003906
  endloop
 endfacet
 facet normal 0.62996245436230613 0.19109320576970645 -0.75274875808763453
  outer loop
   vertex 159.23880004882812 153.82682800292969 -150
   vertex 295.28976440429688 178.89993286132812 -29.776222229003906
   vertex 159.80784606933594 151.95089721679688 -150
  endloop
 endfacet
 facet normal 0.65513736241472564 0.064530786142550201 -0.75274883859631492
  outer loop
   vertex 159.80784606933594 151.95089721679688 -150
   vertex 295.28976440429688 178.89993286132812 -29.776222229003906
   vertex 298.13623046875 150 -29.7763671875
  endloop
 endfacet
 facet normal 0.65513746275820206 0.064527868259999982 -0.75274900139991241
  outer loop
   vertex 159.80784606933594 151.95089721679688 -150
   vertex 298.13623046875 150 -29.7763671875
   vertex 160 150 -150
  endloop
 endfacet
 facet normal 0.65513733826498743 -0.064530800799760465 -0.75274885835795813
  outer loop
   vertex 160 150 -150
   vertex 298.13623046875 150 -29.7763671875
   vertex 295.28976440429688 121.10007476806641 -29.776222229003906
  endloop
 endfacet
 facet normal 0.65513781185451148 -0.064527902644296337 -0.75274869462444838
  outer loop
   vertex 160 150 -150
   vertex 295.28976440429688 121.10007476806641 -29.776222229003906
   vertex 159.80784606933594 148.04910278320312 -150
  endloop
 endfacet
 facet normal 0.62996281775750518 -0.19109173823166098 -0.75274882651693764
  outer loop
   vertex 159.80784606933594 148.04910278320312 -150
   vertex 295.28976440429688 121.10007476806641 -29.776222229003906
   vertex 286.86004638671875 93.310745239257812 -29.776351928710938
  endloop
 endfacet
 facet normal 0.62996228717229708 -0.19109315505418434 -0.75274891088070373
  outer loop
   vertex 159.80784606933594 148.04910278320312 -150
   vertex 286.86004638671875 93.310745239257812 -29.776351928710938
   vertex 159.23880004882812 146.17317199707031 -150
  endloop
 endfacet
 facet normal 0.58057427139025941 -0.3103265061816835 -0.7527489455062284
  outer loop
   vertex 159.23880004882812 146.17317199707031 -150
   vertex 286.86004638671875 93.310745239257812 -29.776351928710938
   vertex 273.1707763671875 67.699974060058594 -29.776268005371094
  endloop
 endfacet
 facet normal 0.58057503176950231 -0.3103252788895669 -0.75274886500608806
  outer loop
   vertex 159.23880004882812 146.17317199707031 -150
   vertex 273.1707763671875 67.699974060058594 -29.776268005371094
   vertex 158.314697265625 144.44430541992188 -150
  endloop
 endfacet
 facet normal 0.5088811140584214 -0.41762303780091703 -0.75274896881536391
  outer loop
   vertex 158.314697265625 144.44430541992188 -150
   vertex 273.1707763671875 67.699974060058594 -29.776268005371094
   vertex 254.74813842773438 45.251853942871094 -29.776374816894531
  endloop
 endfacet
 facet normal 0.50888191545202011 -0.41762217932546464 -0.75274890332788436
  outer loop
   vertex 158.314697265625 144.44430541992188 -150
   vertex 254.74813842773438 45.251853942871094 -29.776374816894531
   vertex 157.07107543945312 142.92892456054688 -150
  endloop
 endfacet
 facet normal 0.41762174881810987 -0.508882307004347 -0.75274887746979535
  outer loop
   vertex 157.07107543945312 142.92892456054688 -150
   vertex 254.74813842773438 45.251853942871094 -29.776374816894531
   vertex 232.300048828125 26.82928466796875 -29.776229858398438
  endloop
 endfacet
 facet normal 0.41762222163658186 -0.50888196700905763 -0.75274884499965733
  outer loop
   vertex 157.07107543945312 142.92892456054688 -150
   vertex 232.300048828125 26.82928466796875 -29.776229858398438
   vertex 155.55569458007812 141.685302734375 -150
  endloop
 endfacet
 facet normal 0.31032881731160056 -0.5805731535561951 -0.75274885487511567
  outer loop
   vertex 155.55569458007812 141.685302734375 -150
   vertex 232.300048828125 26.82928466796875 -29.776229858398438
   vertex 206.6893310546875 13.139984130859375 -29.7763671875
  endloop
 endfacet
 facet normal 0.31032516369730362 -0.58057481626094898 -0.75274907871069952
  outer loop
   vertex 155.55569458007812 141.685302734375 -150
   vertex 206.6893310546875 13.139984130859375 -29.7763671875
   vertex 153.82682800292969 140.76119995117188 -150
  endloop
 endfacet
 facet normal 0.191093477244175 -0.62996213949337143 -0.75274895267922082
  outer loop
   vertex 153.82682800292969 140.76119995117188 -150
   vertex 206.6893310546875 13.139984130859375 -29.7763671875
   vertex 178.89993286132812 4.710205078125 -29.776275634765625
  endloop
 endfacet
 facet normal 0.19109313466769701 -0.629962219965713 -0.75274897230002513
  outer loop
   vertex 153.82682800292969 140.76119995117188 -150
   vertex 178.89993286132812 4.710205078125 -29.776275634765625
   vertex 151.95089721679688 140.19215393066406 -150
  endloop
 endfacet
 facet normal 0.064528565443749686 -0.6551374562793193 -0.75274894727368091
  outer loop
   vertex 151.95089721679688 140.19215393066406 -150
   vertex 178.89993286132812 4.710205078125 -29.776275634765625
   vertex 149.99993896484375 1.8637700080871582 -29.7763671875
  endloop
 endfacet
 facet normal 0.064527869977452412 -0.65513748019512441 -0.75274898607687024
  outer loop
   vertex 151.95089721679688 140.19215393066406 -150
   vertex 149.99993896484375 1.8637700080871582 -29.7763671875
   vertex 150 140 -150
  endloop
 endfacet
 facet normal -0.06453101419291854 -0.65513731426868071 -0.75274886094902416
  outer loop
   vertex 150 140 -150
   vertex 149.99993896484375 1.8637700080871582 -29.7763671875
   vertex 121.10002136230469 4.7102360725402832 -29.776214599609375
  endloop
 endfacet
 facet normal -0.064527903698495565 -0.65513782255756792 -0.7527486852189158
  outer loop
   vertex 150 140 -150
   vertex 121.10002136230469 4.7102360725402832 -29.776214599609375
   vertex 148.04910278320312 140.19215393066406 -150
  endloop
 endfacet
 facet normal -0.19109409633388474 -0.62996222613148434 -0.7527487230104084
  outer loop
   vertex 148.04910278320312 140.19215393066406 -150
   vertex 121.10002136230469 4.7102360725402832 -29.776214599609375
   vertex 93.31085205078125 13.13995361328125 -29.776290893554688
  endloop
 endfacet
 facet normal -0.19109323444669815 -0.62996254889956604 -0.75274867169106385
  outer loop
   vertex 148.04910278320312 140.19215393066406 -150
   vertex 93.31085205078125 13.13995361328125 -29.776290893554688
   vertex 146.17317199707031 140.76119995117188 -150
  endloop
 endfacet
 facet normal -0.31032050749653495 -0.58057741872966051 -0.75274899102443016
  outer loop
   vertex 146.17317199707031 140.76119995117188 -150
   vertex 93.31085205078125 13.13995361328125 -29.776290893554688
   vertex 67.699905395507812 26.829216003417969 -29.776390075683594
  endloop
 endfacet
 facet normal -0.31032505033974211 -0.58057460418486506 -0.75274928901143701
  outer loop
   vertex 146.17317199707031 140.76119995117188 -150
   vertex 67.699905395507812 26.829216003417969 -29.776390075683594
   vertex 144.44430541992188 141.685302734375 -150
  endloop
 endfacet
 facet normal -0.41762954090766985 -0.50887572334811948 -0.75274900514592324
  outer loop
   vertex 144.44430541992188 141.685302734375 -150
   vertex 67.699905395507812 26.829216003417969 -29.776390075683594
   vertex 45.251815795898438 45.251983642578125 -29.776275634765625
  endloop
 endfacet
 facet normal -0.4176224953215561 -0.50888230050028682 -0.75274846770945514
  outer loop
   vertex 144.44430541992188 141.685302734375 -150
   vertex 45.251815795898438 45.251983642578125 -29.776275634765625
   vertex 142.92892456054688 142.92892456054688 -150
  endloop
 endfacet
 facet normal -0.50887906732305721 -0.41762592199270621 -0.75274875232055849
  outer loop
   vertex 142.92892456054688 142.92892456054688 -150
   vertex 45.251815795898438 45.251983642578125 -29.776275634765625
   vertex 26.829292297363281 67.699897766113281 -29.776268005371094
  endloop
 endfacet
 facet normal -0.50888181682281119 -0.41762209838380815 -0.752749014910428
  outer loop
   vertex 142.92892456054688 142.92892456054688 -150
   vertex 26.829292297363281 67.699897766113281 -29.776268005371094
   vertex 141.685302734375 144.44430541992188 -150
  endloop
 endfacet
 facet normal -0.58057353162043479 -0.31032787249311145 -0.75274895279613319
  outer loop
   vertex 141.685302734375 144.44430541992188 -150
   vertex 26.829292297363281 67.699897766113281 -29.776268005371094
   vertex 13.139984130859375 93.3106689453125 -29.776382446289062
  endloop
 endfacet
 facet normal -0.58057477450783068 -0.31032514137969197 -0.75274912011430206
  outer loop
   vertex 141.685302734375 144.44430541992188 -150
   vertex 13.139984130859375 93.3106689453125 -29.776382446289062
   vertex 140.76119995117188 146.17317199707031 -150
  endloop
 endfacet
 facet normal -0.62996184448658021 -0.1910941469832001 -0.75274902954426237
  outer loop
   vertex 140.76119995117188 146.17317199707031 -150
   vertex 13.139984130859375 93.3106689453125 -29.776382446289062
   vertex 4.7101898193359375 121.10006713867188 -29.77630615234375
  endloop
 endfacet
 facet normal -0.62996209144116133 -0.1910930956809789 -0.75274908975709698
  outer loop
   vertex 140.76119995117188 146.17317199707031 -150
   vertex 4.7101898193359375 121.10006713867188 -29.77630615234375
   vertex 140.19215393066406 148.04910278320312 -150
  endloop
 endfacet
 facet normal -0.65513770796778237 -0.064526058307014522 -0.75274894313979657
  outer loop
   vertex 140.19215393066406 148.04910278320312 -150
   vertex 4.7101898193359375 121.10006713867188 -29.77630615234375
   vertex 1.8637847900390625 150 -29.776321411132812
  endloop
 endfacet
 facet normal -0.655137645110212 -0.064527886220790115 -0.7527488411544202
  outer loop
   vertex 140.19215393066406 148.04910278320312 -150
   vertex 1.8637847900390625 150 -29.776321411132812
   vertex 140 150 -150
  endloop
 endfacet
 facet normal -0.65513772264525683 0.064526059752617895 -0.75274893024167633
  outer loop
   vertex 140 150 -150
   vertex 1.8637847900390625 150 -29.776321411132812
   vertex 4.7101898193359375 178.89993286132812 -29.77630615234375
  endloop
 endfacet
 facet normal -0.65513742768321315 0.0645278648052834 -0.75274903222275469
  outer loop
   vertex 140 150 -150
   vertex 4.7101898193359375 178.89993286132812 -29.77630615234375
   vertex 140.19215393066406 151.95089721679688 -150
  endloop
 endfacet
 facet normal -0.62996183615338841 0.19109414445534134 -0.75274903715988417
  outer loop
   vertex 140.19215393066406 151.95089721679688 -150
   vertex 4.7101898193359375 178.89993286132812 -29.77630615234375
   vertex 13.139984130859375 206.6893310546875 -29.776382446289062
  endloop
 endfacet
 facet normal -0.6299622148866536 0.1910931331270119 -0.75274897694171838
  outer loop
   vertex 140.19215393066406 151.95089721679688 -150
   vertex 13.139984130859375 206.6893310546875 -29.776382446289062
   vertex 140.76119995117188 153.82682800292969 -150
  endloop
 endfacet
 facet normal -0.58057346120951558 0.31032796665385948 -0.75274896828337412
  outer loop
   vertex 140.76119995117188 153.82682800292969 -150
   vertex 13.139984130859375 206.6893310546875 -29.776382446289062
   vertex 26.829292297363281 232.30010986328125 -29.776260375976562
  endloop
 endfacet
 facet normal -0.5805751028883932 0.31032531690358478 -0.75274879448247634
  outer loop
   vertex 140.76119995117188 153.82682800292969 -150
   vertex 26.829292297363281 232.30010986328125 -29.776260375976562
   vertex 141.685302734375 155.55569458007812 -150
  endloop
 endfacet
 facet normal -0.5088790981699195 0.4176258334094935 -0.75274878061329031
  outer loop
   vertex 141.685302734375 155.55569458007812 -150
   vertex 26.829292297363281 232.30010986328125 -29.776260375976562
   vertex 45.251815795898438 254.74801635742188 -29.776275634765625
  endloop
 endfacet
 facet normal -0.50888225169472523 0.41762245526848213 -0.75274852292490813
  outer loop
   vertex 141.685302734375 155.55569458007812 -150
   vertex 45.251815795898438 254.74801635742188 -29.776275634765625
   vertex 142.92892456054688 157.07107543945312 -150
  endloop
 endfacet
 facet normal -0.41762949160185608 0.50887587400963064 -0.75274893065039261
  outer loop
   vertex 142.92892456054688 157.07107543945312 -150
   vertex 45.251815795898438 254.74801635742188 -29.776275634765625
   vertex 67.699905395507812 273.1707763671875 -29.776390075683594
  endloop
 endfacet
 facet normal -0.41762177507495096 0.50888142286377669 -0.75274946060916248
  outer loop
   vertex 142.92892456054688 157.07107543945312 -150
   vertex 67.699905395507812 273.1707763671875 -29.776390075683594
   vertex 144.44430541992188 158.314697265625 -150
  endloop
 endfacet
 facet normal -0.31032062629576368 0.58057731741742258 -0.75274902018919576
  outer loop
   vertex 144.44430541992188 158.314697265625 -150
   vertex 67.699905395507812 273.1707763671875 -29.776390075683594
   vertex 93.31085205078125 286.86004638671875 -29.776290893554688
  endloop
 endfacet
 facet normal -0.31032535126614291 0.58057516717591551 -0.75274873073303994
  outer loop
   vertex 144.44430541992188 158.314697265625 -150
   vertex 93.31085205078125 286.86004638671875 -29.776290893554688
   vertex 146.17317199707031 159.23880004882812 -150
  endloop
 endfacet
 facet normal -0.19109410821935077 0.62996222967814786 -0.75274871702500279
  outer loop
   vertex 146.17317199707031 159.23880004882812 -150
   vertex 93.31085205078125 286.86004638671875 -29.776290893554688
   vertex 121.10002136230469 295.28976440429688 -29.776214599609375
  endloop
 endfacet
 facet normal -0.19109320217484438 0.62996244251139744 -0.75274876891804898
  outer loop
   vertex 146.17317199707031 159.23880004882812 -150
   vertex 121.10002136230469 295.28976440429688 -29.776214599609375
   vertex 148.04910278320312 159.80784606933594 -150
  endloop
 endfacet
 facet normal -0.064531016557746873 0.65513733827970422 -0.75274883984886232
  outer loop
   vertex 148.04910278320312 159.80784606933594 -150
   vertex 121.10002136230469 295.28976440429688 -29.776214599609375
   vertex 149.99993896484375 298.13623046875 -29.7763671875
  endloop
 endfacet
 facet normal -0.064527866668762396 0.65513744660271167 -0.75274901559687046
  outer loop
   vertex 148.04910278320312 159.80784606933594 -150
   vertex 149.99993896484375 298.13623046875 -29.7763671875
   vertex 150 160 -150
  endloop
 endfacet
 facet normal -0.098020841524667765 0.99518436212934747 0
  outer loop
   vertex 148.04910278320312 159.80784606933594 -160
   vertex 148.04910278320312 159.80784606933594 -150
   vertex 150 160 -150
  endloop
 endfacet
 facet normal -0.098020841524667765 0.99518436212934747 0
  outer loop
   vertex 148.04910278320312 159.80784606933594 -160
   vertex 150 160 -150
   vertex 150 160 -160
  endloop
 endfacet
 facet normal -0.29027936964329598 0.95694194576238045 0
  outer loop
   vertex 146.17317199707031 159.23880004882812 -160
   vertex 146.17317199707031 159.23880004882812 -150
   vertex 148.04910278320312 159.80784606933594 -150
  endloop
 endfacet
 facet normal -0.29027936964329598 0.95694194576238045 0
  outer loop
   vertex 146.17317199707031 159.23880004882812 -160
   vertex 148.04910278320312 159.80784606933594 -150
   vertex 148.04910278320312 159.80784606933594 -160
  endloop
 endfacet
 facet normal -0.4713984608030185 0.88192034286127285 0
  outer loop
   vertex 144.44430541992188 158.314697265625 -160
   vertex 144.44430541992188 158.314697265625 -150
   vertex 146.17317199707031 159.23880004882812 -150
  endloop
 endfacet
 facet normal -0.4713984608030185 0.88192034286127285 0
  outer loop
   vertex 144.44430541992188 158.314697265625 -160
   vertex 146.17317199707031 159.23880004882812 -150
   vertex 146.17317199707031 159.23880004882812 -160
  endloop
 endfacet
 facet normal -0.63438746060213957 0.7730152325994416 0
  outer loop
   vertex 142.92892456054688 157.07107543945312 -160
   vertex 142.92892456054688 157.07107543945312 -150
   vertex 144.44430541992188 158.314697265625 -150
  endloop
 endfacet
 facet normal -0.63438746060213957 0.7730152325994416 0
  outer loop
   vertex 142.92892456054688 157.07107543945312 -160
   vertex 144.44430541992188 158.314697265625 -150
   vertex 144.44430541992188 158.314697265625 -160
  endloop
 endfacet
 facet normal -0.7730152325994416 0.63438746060213957 0
  outer loop
   vertex 141.685302734375 155.55569458007812 -160
   vertex 141.685302734375 155.55569458007812 -150
   vertex 142.92892456054688 157.07107543945312 -150
  endloop
 endfacet
 facet normal -0.7730152325994416 0.63438746060213957 0
  outer loop
   vertex 141.685302734375 155.55569458007812 -160
   vertex 142.92892456054688 157.07107543945312 -150
   vertex 142.92892456054688 157.07107543945312 -160
  endloop
 endfacet
 facet normal -0.88192034286127285 0.4713984608030185 0
  outer loop
   vertex 140.76119995117188 153.82682800292969 -160
   vertex 140.76119995117188 153.82682800292969 -150
   vertex 141.685302734375 155.55569458007812 -150
  endloop
 endfacet
 facet normal -0.88192034286127285 0.4713984608030185 0
  outer loop
   vertex 140.76119995117188 153.82682800292969 -160
   vertex 141.685302734375 155.55569458007812 -150
   vertex 141.685302734375 155.55569458007812 -160
  endloop
 endfacet
 facet normal -0.95694194576238045 0.29027936964329598 0
  outer loop
   vertex 140.19215393066406 151.95089721679688 -160
   vertex 140.19215393066406 151.95089721679688 -150
   vertex 140.76119995117188 153.82682800292969 -150
  endloop
 endfacet
 facet normal -0.95694194576238045 0.29027936964329598 0
  outer loop
   vertex 140.19215393066406 151.95089721679688 -160
   vertex 140.76119995117188 153.82682800292969 -150
   vertex 140.76119995117188 153.82682800292969 -160
  endloop
 endfacet
 facet normal -0.99518436212934747 0.098020841524667765 0
  outer loop
   vertex 140 150 -160
   vertex 140 150 -150
   vertex 140.19215393066406 151.95089721679688 -150
  endloop
 endfacet
 facet normal -0.99518436212934747 0.098020841524667765 0
  outer loop
   vertex 140 150 -160
   vertex 140.19215393066406 151.95089721679688 -150
   vertex 140.19215393066406 151.95089721679688 -160
  endloop
 endfacet
 facet normal -0.99518436212934747 -0.098020841524667765 -0
  outer loop
   vertex 140.19215393066406 148.04910278320312 -160
   vertex 140.19215393066406 148.04910278320312 -150
   vertex 140 150 -150
  endloop
 endfacet
 facet normal -0.99518436212934747 -0.098020841524667765 -0
  outer loop
   vertex 140.19215393066406 148.04910278320312 -160
   vertex 140 150 -150
   vertex 140 150 -160
  endloop
 endfacet
 facet normal -0.95694194576238045 -0.29027936964329598 -0
  outer loop
   vertex 140.76119995117188 146.17317199707031 -160
   vertex 140.76119995117188 146.17317199707031 -150
   vertex 140.19215393066406 148.04910278320312 -150
  endloop
 endfacet
 facet normal -0.95694194576238045 -0.29027936964329598 -0
  outer loop
   vertex 140.76119995117188 146.17317199707031 -160
   vertex 140.19215393066406 148.04910278320312 -150
   vertex 140.19215393066406 148.04910278320312 -160
  endloop
 endfacet
 facet normal -0.88192034286127285 -0.4713984608030185 -0
  outer loop
   vertex 141.685302734375 144.44430541992188 -160
   vertex 141.685302734375 144.44430541992188 -150
   vertex 140.76119995117188 146.17317199707031 -150
  endloop
 endfacet
 facet normal -0.88192034286127285 -0.4713984608030185 -0
  outer loop
   vertex 141.685302734375 144.44430541992188 -160
   vertex 140.76119995117188 146.17317199707031 -150
   vertex 140.76119995117188 146.17317199707031 -160
  endloop
 endfacet
 facet normal -0.7730152325994416 -0.63438746060213957 -0
  outer loop
   vertex 142.92892456054688 142.92892456054688 -160
   vertex 142.92892456054688 142.92892456054688 -150
   vertex 141.685302734375 144.44430541992188 -150
  endloop
 endfacet
 facet normal -0.7730152325994416 -0.63438746060213957 -0
  outer loop
   vertex 142.92892456054688 142.92892456054688 -160
   vertex 141.685302734375 144.44430541992188 -150
   vertex 141.685302734375 144.44430541992188 -160
  endloop
 endfacet
 facet normal -0.63438746060213957 -0.7730152325994416 -0
  outer loop
   vertex 144.44430541992188 141.685302734375 -160
   vertex 144.44430541992188 141.685302734375 -150
   vertex 142.92892456054688 142.92892456054688 -150
  endloop
 endfacet
 facet normal -0.63438746060213957 -0.7730152325994416 -0
  outer loop
   vertex 144.44430541992188 141.685302734375 -160
   vertex 142.92892456054688 142.92892456054688 -150
   vertex 142.92892456054688 142.92892456054688 -160
  endloop
 endfacet
 facet normal -0.4713984608030185 -0.88192034286127285 -0
  outer loop
   vertex 146.17317199707031 140.76119995117188 -160
   vertex 146.17317199707031 140.76119995117188 -150
   vertex 144.44430541992188 141.685302734375 -150
  endloop
 endfacet
 facet normal -0.4713984608030185 -0.88192034286127285 -0
  outer loop
   vertex 146.17317199707031 140.76119995117188 -160
   vertex 144.44430541992188 141.685302734375 -150
   vertex 144.44430541992188 141.685302734375 -160
  endloop
 endfacet
 facet normal -0.29027936964329598 -0.95694194576238045 -0
  outer loop
   vertex 148.04910278320312 140.19215393066406 -160
   vertex 148.04910278320312 140.19215393066406 -150
   vertex 146.17317199707031 140.76119995117188 -150
  endloop
 endfacet
 facet normal -0.29027936964329598 -0.95694194576238045 -0
  outer loop
   vertex 148.04910278320312 140.19215393066406 -160
   vertex 146.17317199707031 140.76119995117188 -150
   vertex 146.17317199707031 140.76119995117188 -160
  endloop
 endfacet
 facet normal -0.098020841524667765 -0.99518436212934747 -0
  outer loop
   vertex 150 140 -160
   vertex 150 140 -150
   vertex 148.04910278320312 140.19215393066406 -150
  endloop
 endfacet
 facet normal -0.098020841524667765 -0.99518436212934747 -0
  outer loop
   vertex 150 140 -160
   vertex 148.04910278320312 140.19215393066406 -150
   vertex 148.04910278320312 140.19215393066406 -160
  endloop
 endfacet
 facet normal 0.098020841524667765 -0.99518436212934747 0
  outer loop
   vertex 151.95089721679688 140.19215393066406 -160
   vertex 151.95089721679688 140.19215393066406 -150
   vertex 150 140 -150
  endloop
 endfacet
 facet normal 0.098020841524667765 -0.99518436212934747 0
  outer loop
   vertex 151.95089721679688 140.19215393066406 -160
   vertex 150 140 -150
   vertex 150 140 -160
  endloop
 endfacet
 facet normal 0.29027936964329598 -0.95694194576238045 0
  outer loop
   vertex 153.82682800292969 140.76119995117188 -160
   vertex 153.82682800292969 140.76119995117188 -150
   vertex 151.95089721679688 140.19215393066406 -150
  endloop
 endfacet
 facet normal 0.29027936964329598 -0.95694194576238045 0
  outer loop
   vertex 153.82682800292969 140.76119995117188 -160
   vertex 151.95089721679688 140.19215393066406 -150
   vertex 151.95089721679688 140.19215393066406 -160
  endloop
 endfacet
 facet normal 0.4713984608030185 -0.88192034286127285 0
  outer loop
   vertex 155.55569458007812 141.685302734375 -160
   vertex 155.55569458007812 141.685302734375 -150
   vertex 153.82682800292969 140.76119995117188 -150
  endloop
 endfacet
 facet normal 0.4713984608030185 -0.88192034286127285 0
  outer loop
   vertex 155.55569458007812 141.685302734375 -160
   vertex 153.82682800292969 140.76119995117188 -150
   vertex 153.82682800292969 140.76119995117188 -160
  endloop
 endfacet
 facet normal 0.63438746060213957 -0.7730152325994416 0
  outer loop
   vertex 157.07107543945312 142.92892456054688 -160
   vertex 157.07107543945312 142.92892456054688 -150
   vertex 155.55569458007812 141.685302734375 -150
  endloop
 endfacet
 facet normal 0.63438746060213957 -0.7730152325994416 0
  outer loop
   vertex 157.07107543945312 142.92892456054688 -160
   vertex 155.55569458007812 141.685302734375 -150
   vertex 155.55569458007812 141.685302734375 -160
  endloop
 endfacet
 facet normal 0.7730152325994416 -0.63438746060213957 0
  outer loop
   vertex 158.314697265625 144.44430541992188 -160
   vertex 158.314697265625 144.44430541992188 -150
   vertex 157.07107543945312 142.92892456054688 -150
  endloop
 endfacet
 facet normal 0.7730152325994416 -0.63438746060213957 0
  outer loop
   vertex 158.314697265625 144.44430541992188 -160
   vertex 157.07107543945312 142.92892456054688 -150
   vertex 157.07107543945312 142.92892456054688 -160
  endloop
 endfacet
 facet normal 0.88192034286127285 -0.4713984608030185 0
  outer loop
   vertex 159.23880004882812 146.17317199707031 -160
   vertex 159.23880004882812 146.17317199707031 -150
   vertex 158.314697265625 144.44430541992188 -150
  endloop
 endfacet
 facet normal 0.88192034286127285 -0.4713984608030185 0
  outer loop
   vertex 159.23880004882812 146.17317199707031 -160
   vertex 158.314697265625 144.44430541992188 -150
   vertex 158.314697265625 144.44430541992188 -160
  endloop
 endfacet
 facet normal 0.95694194576238045 -0.29027936964329598 0
  outer loop
   vertex 159.80784606933594 148.04910278320312 -160
   vertex 159.80784606933594 148.04910278320312 -150
   vertex 159.23880004882812 146.17317199707031 -150
  endloop
 endfacet
 facet normal 0.95694194576238045 -0.29027936964329598 0
  outer loop
   vertex 159.80784606933594 148.04910278320312 -160
   vertex 159.23880004882812 146.17317199707031 -150
   vertex 159.23880004882812 146.17317199707031 -160
  endloop
 endfacet
 facet normal 0.99518436212934747 -0.098020841524667765 0
  outer loop
   vertex 160 150 -160
   vertex 160 150 -150
   vertex 159.80784606933594 148.04910278320312 -150
  endloop
 endfacet
 facet normal 0.99518436212934747 -0.098020841524667765 0
  outer loop
   vertex 160 150 -160
   vertex 159.80784606933594 148.04910278320312 -150
   vertex 159.80784606933594 148.04910278320312 -160
  endloop
 endfacet
 facet normal 0.99518436212934747 0.098020841524667765 0
  outer loop
   vertex 159.80784606933594 151.95089721679688 -160
   vertex 159.80784606933594 151.95089721679688 -150
   vertex 160 150 -150
  endloop
 endfacet
 facet normal 0.99518436212934747 0.098020841524667765 0
  outer loop
   vertex 159.80784606933594 151.95089721679688 -160
   vertex 160 150 -150
   vertex 160 150 -160
  endloop
 endfacet
 facet normal 0.95694194576238045 0.29027936964329598 0
  outer loop
   vertex 159.23880004882812 153.82682800292969 -160
   vertex 159.23880004882812 153.82682800292969 -150
   vertex 159.80784606933594 151.95089721679688 -150
  endloop
 endfacet
 facet normal 0.95694194576238045 0.29027936964329598 0
  outer loop
   vertex 159.23880004882812 153.82682800292969 -160
   vertex 159.80784606933594 151.95089721679688 -150
   vertex 159.80784606933594 151.95089721679688 -160
  endloop
 endfacet
 facet normal 0.88192034286127285 0.4713984608030185 0
  outer loop
   vertex 158.314697265625 155.55569458007812 -160
   vertex 158.314697265625 155.55569458007812 -150
   vertex 159.23880004882812 153.82682800292969 -150
  endloop
 endfacet
 facet normal 0.88192034286127285 0.4713984608030185 0
  outer loop
   vertex 158.314697265625 155.55569458007812 -160
   vertex 159.23880004882812 153.82682800292969 -150
   vertex 159.23880004882812 153.82682800292969 -160
  endloop
 endfacet
 facet normal 0.7730152325994416 0.63438746060213957 0
  outer loop
   vertex 157.07107543945312 157.07107543945312 -160
   vertex 157.07107543945312 157.07107543945312 -150
   vertex 158.314697265625 155.55569458007812 -150
  endloop
 endfacet
 facet normal 0.7730152325994416 0.63438746060213957 0
  outer loop
   vertex 157.07107543945312 157.07107543945312 -160
   vertex 158.314697265625 155.55569458007812 -150
   vertex 158.314697265625 155.55569458007812 -160
  endloop
 endfacet
 facet normal 0.63438746060213957 0.7730152325994416 0
  outer loop
   vertex 155.55569458007812 158.314697265625 -160
   vertex 155.55569458007812 158.314697265625 -150
   vertex 157.07107543945312 157.07107543945312 -150
  endloop
 endfacet
 facet normal 0.63438746060213957 0.7730152325994416 0
  outer loop
   vertex 155.55569458007812 158.314697265625 -160
   vertex 157.07107543945312 157.07107543945312 -150
   vertex 157.07107543945312 157.07107543945312 -160
  endloop
 endfacet
 facet normal 0.4713984608030185 0.88192034286127285 0
  outer loop
   vertex 153.82682800292969 159.23880004882812 -160
   vertex 153.82682800292969 159.23880004882812 -150
   vertex 155.55569458007812 158.314697265625 -150
  endloop
 endfacet
 facet normal 0.4713984608030185 0.88192034286127285 0
  outer loop
   vertex 153.82682800292969 159.23880004882812 -160
   vertex 155.55569458007812 158.314697265625 -150
   vertex 155.55569458007812 158.314697265625 -160
  endloop
 endfacet
 facet normal 0.29027936964329598 0.95694194576238045 0
  outer loop
   vertex 151.95089721679688 159.80784606933594 -160
   vertex 151.95089721679688 159.80784606933594 -150
   vertex 153.82682800292969 159.23880004882812 -150
  endloop
 endfacet
 facet normal 0.29027936964329598 0.95694194576238045 0
  outer loop
   vertex 151.95089721679688 159.80784606933594 -160
   vertex 153.82682800292969 159.23880004882812 -150
   vertex 153.82682800292969 159.23880004882812 -160
  endloop
 endfacet
 facet normal 0.098020841524667765 0.99518436212934747 0
  outer loop
   vertex 150 160 -160
   vertex 150 160 -150
   vertex 151.95089721679688 159.80784606933594 -150
  endloop
 endfacet
 facet normal 0.098020841524667765 0.99518436212934747 0
  outer loop
   vertex 150 160 -160
   vertex 151.95089721679688 159.80784606933594 -150
   vertex 151.95089721679688 159.80784606933594 -160
  endloop
 endfacet
 facet normal 0.95694112905553574 -0.29028206200507234 0
  outer loop
   vertex 286.86004638671875 93.310745239257812 -29.776351928710938
   vertex 295.28976440429688 121.10007476806641 -29.776222229003906
   vertex 295.28976440429688 121.10007476806641 100.22378540039062
  endloop
 endfacet
 facet normal 0.95694112905553574 -0.29028206200507234 0
  outer loop
   vertex 286.86004638671875 93.310745239257812 -29.776351928710938
   vertex 295.28976440429688 121.10007476806641 100.22378540039062
   vertex 286.86004638671875 93.310745239257812 100.22364807128906
  endloop
 endfacet
 facet normal -0.098019617111464966 -0.99518448272735938 0
  outer loop
   vertex 121.10002136230469 4.7102360725402832 -29.776214599609375
   vertex 149.99993896484375 1.8637700080871582 -29.7763671875
   vertex 149.99993896484375 1.8637700080871582 100.2236328125
  endloop
 endfacet
 facet normal -0.098019617111464966 -0.99518448272735938 0
  outer loop
   vertex 121.10002136230469 4.7102360725402832 -29.776214599609375
   vertex 149.99993896484375 1.8637700080871582 100.2236328125
   vertex 121.10002136230469 4.7102360725402832 100.22378540039062
  endloop
 endfacet
 facet normal -0.99518469279690203 -0.098017484270591079 0
  outer loop
   vertex 1.8637847900390625 150 -29.776321411132812
   vertex 4.7101898193359375 121.10006713867188 -29.77630615234375
   vertex 4.7101898193359375 121.10006713867188 100.22369384765625
  endloop
 endfacet
 facet normal -0.99518469279690203 -0.098017484270591079 0
  outer loop
   vertex 1.8637847900390625 150 -29.776321411132812
   vertex 4.7101898193359375 121.10006713867188 100.22369384765625
   vertex 1.8637847900390625 150 100.22367858886719
  endloop
 endfacet
 facet normal 0.63439134737705904 0.77301204283835023 -0
  outer loop
   vertex 254.74813842773438 254.74813842773438 -29.776374816894531
   vertex 232.300048828125 273.17071533203125 -29.776229858398438
   vertex 232.300048828125 273.17071533203125 100.22377014160156
  endloop
 endfacet
 facet normal 0.63439134737705904 0.77301204283835023 0
  outer loop
   vertex 254.74813842773438 254.74813842773438 -29.776374816894531
   vertex 232.300048828125 273.17071533203125 100.22377014160156
   vertex 254.74813842773438 254.74813842773438 100.2236328125
  endloop
 endfacet
 facet normal -0.29028359458851111 0.95694066415466594 0
  outer loop
   vertex 121.10002136230469 295.28976440429688 -29.776214599609375
   vertex 93.31085205078125 286.86004638671875 -29.776290893554688
   vertex 93.31085205078125 286.86004638671875 100.22370910644531
  endloop
 endfacet
 facet normal -0.29028359458851111 0.95694066415466594 0
  outer loop
   vertex 121.10002136230469 295.28976440429688 -29.776214599609375
   vertex 93.31085205078125 286.86004638671875 100.22370910644531
   vertex 121.10002136230469 295.28976440429688 100.22378540039062
  endloop
 endfacet
 facet normal 0.88192086888189791 -0.47139747669095383 0
  outer loop
   vertex 273.1707763671875 67.699974060058594 -29.776268005371094
   vertex 286.86004638671875 93.310745239257812 -29.776351928710938
   vertex 286.86004638671875 93.310745239257812 100.22364807128906
  endloop
 endfacet
 facet normal 0.8819208688818978 -0.47139747669095378 0
  outer loop
   vertex 273.1707763671875 67.699974060058594 -29.776268005371094
   vertex 286.86004638671875 93.310745239257812 100.22364807128906
   vertex 273.1707763671875 67.699974060058594 100.22372436523438
  endloop
 endfacet
 facet normal 0.098018320042536272 0.99518461047990436 -0
  outer loop
   vertex 178.89993286132812 295.289794921875 -29.776275634765625
   vertex 149.99993896484375 298.13623046875 -29.7763671875
   vertex 149.99993896484375 298.13623046875 100.2236328125
  endloop
 endfacet
 facet normal 0.098018320042536272 0.99518461047990436 0
  outer loop
   vertex 178.89993286132812 295.289794921875 -29.776275634765625
   vertex 149.99993896484375 298.13623046875 100.2236328125
   vertex 178.89993286132812 295.289794921875 100.22372436523438
  endloop
 endfacet
 facet normal -0.29028357955191414 -0.95694066871594896 0
  outer loop
   vertex 93.31085205078125 13.13995361328125 -29.776290893554688
   vertex 121.10002136230469 4.7102360725402832 -29.776214599609375
   vertex 121.10002136230469 4.7102360725402832 100.22378540039062
  endloop
 endfacet
 facet normal -0.29028357955191414 -0.95694066871594896 0
  outer loop
   vertex 93.31085205078125 13.13995361328125 -29.776290893554688
   vertex 121.10002136230469 4.7102360725402832 100.22378540039062
   vertex 93.31085205078125 13.13995361328125 100.22370910644531
  endloop
 endfacet
 facet normal -0.99518469279690203 0.098017484270591079 0
  outer loop
   vertex 4.7101898193359375 178.89993286132812 -29.77630615234375
   vertex 1.8637847900390625 150 -29.776321411132812
   vertex 1.8637847900390625 150 100.22367858886719
  endloop
 endfacet
 facet normal -0.99518469279690203 0.098017484270591079 0
  outer loop
   vertex 4.7101898193359375 178.89993286132812 -29.77630615234375
   vertex 1.8637847900390625 150 100.22367858886719
   vertex 4.7101898193359375 178.89993286132812 100.22369384765625
  endloop
 endfacet
 facet normal 0.77301143507651704 0.63439208794005586 -0
  outer loop
   vertex 273.1707763671875 232.30001831054688 -29.776268005371094
   vertex 254.74813842773438 254.74813842773438 -29.776374816894531
   vertex 254.74813842773438 254.74813842773438 100.2236328125
  endloop
 endfacet
 facet normal 0.77301143507651704 0.63439208794005586 0
  outer loop
   vertex 273.1707763671875 232.30001831054688 -29.776268005371094
   vertex 254.74813842773438 254.74813842773438 100.2236328125
   vertex 273.1707763671875 232.30001831054688 100.22372436523438
  endloop
 endfacet
 facet normal -0.098019617111464966 0.99518448272735938 0
  outer loop
   vertex 149.99993896484375 298.13623046875 -29.7763671875
   vertex 121.10002136230469 295.28976440429688 -29.776214599609375
   vertex 121.10002136230469 295.28976440429688 100.22378540039062
  endloop
 endfacet
 facet normal -0.098019617111464966 0.99518448272735938 0
  outer loop
   vertex 149.99993896484375 298.13623046875 -29.7763671875
   vertex 121.10002136230469 295.28976440429688 100.22378540039062
   vertex 149.99993896484375 298.13623046875 100.2236328125
  endloop
 endfacet
 facet normal 0.77301143507651704 -0.63439208794005586 0
  outer loop
   vertex 254.74813842773438 45.251853942871094 -29.776374816894531
   vertex 273.1707763671875 67.699974060058594 -29.776268005371094
   vertex 273.1707763671875 67.699974060058594 100.22372436523438
  endloop
 endfacet
 facet normal 0.77301143507651704 -0.63439208794005586 0
  outer loop
   vertex 254.74813842773438 45.251853942871094 -29.776374816894531
   vertex 273.1707763671875 67.699974060058594 100.22372436523438
   vertex 254.74813842773438 45.251853942871094 100.2236328125
  endloop
 endfacet
 facet normal -0.47139476023360327 -0.88192232085615319 0
  outer loop
   vertex 67.699905395507812 26.829216003417969 -29.776390075683594
   vertex 93.31085205078125 13.13995361328125 -29.776290893554688
   vertex 93.31085205078125 13.13995361328125 100.22370910644531
  endloop
 endfacet
 facet normal -0.47139476023360333 -0.8819223208561533 0
  outer loop
   vertex 67.699905395507812 26.829216003417969 -29.776390075683594
   vertex 93.31085205078125 13.13995361328125 100.22370910644531
   vertex 67.699905395507812 26.829216003417969 100.22360229492188
  endloop
 endfacet
 facet normal -0.95694059849923274 0.29028381102626155 0
  outer loop
   vertex 13.139984130859375 206.6893310546875 -29.776382446289062
   vertex 4.7101898193359375 178.89993286132812 -29.77630615234375
   vertex 4.7101898193359375 178.89993286132812 100.22369384765625
  endloop
 endfacet
 facet normal -0.95694059849923274 0.29028381102626155 0
  outer loop
   vertex 13.139984130859375 206.6893310546875 -29.776382446289062
   vertex 4.7101898193359375 178.89993286132812 100.22369384765625
   vertex 13.139984130859375 206.6893310546875 100.22361755371094
  endloop
 endfacet
 facet normal 0.88192081050087556 0.47139758591392744 -0
  outer loop
   vertex 286.86004638671875 206.68925476074219 -29.776351928710938
   vertex 273.1707763671875 232.30001831054688 -29.776268005371094
   vertex 273.1707763671875 232.30001831054688 100.22372436523438
  endloop
 endfacet
 facet normal 0.88192081050087567 0.4713975859139275 0
  outer loop
   vertex 286.86004638671875 206.68925476074219 -29.776351928710938
   vertex 273.1707763671875 232.30001831054688 100.22372436523438
   vertex 286.86004638671875 206.68925476074219 100.22364807128906
  endloop
 endfacet
 facet normal 0.63439119038793201 -0.77301217167531244 0
  outer loop
   vertex 232.300048828125 26.82928466796875 -29.776229858398438
   vertex 254.74813842773438 45.251853942871094 -29.776374816894531
   vertex 254.74813842773438 45.251853942871094 100.2236328125
  endloop
 endfacet
 facet normal 0.63439119038793201 -0.77301217167531244 0
  outer loop
   vertex 232.300048828125 26.82928466796875 -29.776229858398438
   vertex 254.74813842773438 45.251853942871094 100.2236328125
   vertex 232.300048828125 26.82928466796875 100.22377014160156
  endloop
 endfacet
 facet normal -0.63439527207972701 -0.77300882191789322 0
  outer loop
   vertex 45.251815795898438 45.251983642578125 -29.776275634765625
   vertex 67.699905395507812 26.829216003417969 -29.776390075683594
   vertex 67.699905395507812 26.829216003417969 100.22360229492188
  endloop
 endfacet
 facet normal -0.63439527207972701 -0.77300882191789322 0
  outer loop
   vertex 45.251815795898438 45.251983642578125 -29.776275634765625
   vertex 67.699905395507812 26.829216003417969 100.22360229492188
   vertex 45.251815795898438 45.251983642578125 100.22372436523438
  endloop
 endfacet
 facet normal -0.8819203811480828 0.47139838917376492 0
  outer loop
   vertex 26.829292297363281 232.30010986328125 -29.776260375976562
   vertex 13.139984130859375 206.6893310546875 -29.776382446289062
   vertex 13.139984130859375 206.6893310546875 100.22361755371094
  endloop
 endfacet
 facet normal -0.8819203811480828 0.47139838917376492 0
  outer loop
   vertex 26.829292297363281 232.30010986328125 -29.776260375976562
   vertex 13.139984130859375 206.6893310546875 100.22361755371094
   vertex 26.829292297363281 232.30010986328125 100.22373962402344
  endloop
 endfacet
 facet normal 0.95694110691756595 0.29028213498488598 -0
  outer loop
   vertex 295.28976440429688 178.89993286132812 -29.776222229003906
   vertex 286.86004638671875 206.68925476074219 -29.776351928710938
   vertex 286.86004638671875 206.68925476074219 100.22364807128906
  endloop
 endfacet
 facet normal 0.95694110691756606 0.29028213498488598 0
  outer loop
   vertex 295.28976440429688 178.89993286132812 -29.776222229003906
   vertex 286.86004638671875 206.68925476074219 100.22364807128906
   vertex 295.28976440429688 178.89993286132812 100.22378540039062
  endloop
 endfacet
 facet normal 0.47139905861807502 -0.88192002332070496 0
  outer loop
   vertex 206.6893310546875 13.139984130859375 -29.7763671875
   vertex 232.300048828125 26.82928466796875 -29.776229858398438
   vertex 232.300048828125 26.82928466796875 100.22377014160156
  endloop
 endfacet
 facet normal 0.47139905861807502 -0.88192002332070496 0
  outer loop
   vertex 206.6893310546875 13.139984130859375 -29.7763671875
   vertex 232.300048828125 26.82928466796875 100.22377014160156
   vertex 206.6893310546875 13.139984130859375 100.2236328125
  endloop
 endfacet
 facet normal -0.77301051282186328 -0.63439321171248353 0
  outer loop
   vertex 26.829292297363281 67.699897766113281 -29.776268005371094
   vertex 45.251815795898438 45.251983642578125 -29.776275634765625
   vertex 45.251815795898438 45.251983642578125 100.22372436523438
  endloop
 endfacet
 facet normal -0.77301051282186328 -0.63439321171248353 0
  outer loop
   vertex 26.829292297363281 67.699897766113281 -29.776268005371094
   vertex 45.251815795898438 45.251983642578125 100.22372436523438
   vertex 26.829292297363281 67.699897766113281 100.22372436523438
  endloop
 endfacet
 facet normal -0.77301040708737478 0.63439334055033314 0
  outer loop
   vertex 45.251815795898438 254.74801635742188 -29.776275634765625
   vertex 26.829292297363281 232.30010986328125 -29.776260375976562
   vertex 26.829292297363281 232.30010986328125 100.22373962402344
  endloop
 endfacet
 facet normal -0.77301040708737478 0.63439334055033314 0
  outer loop
   vertex 45.251815795898438 254.74801635742188 -29.776275634765625
   vertex 26.829292297363281 232.30010986328125 100.22373962402344
   vertex 45.251815795898438 254.74801635742188 100.22372436523438
  endloop
 endfacet
 facet normal 0.99518448777574742 0.098019565855615914 -0
  outer loop
   vertex 298.13623046875 150 -29.7763671875
   vertex 295.28976440429688 178.89993286132812 -29.776222229003906
   vertex 295.28976440429688 178.89993286132812 100.22378540039062
  endloop
 endfacet
 facet normal 0.99518448777574731 0.098019565855615914 0
  outer loop
   vertex 298.13623046875 150 -29.7763671875
   vertex 295.28976440429688 178.89993286132812 100.22378540039062
   vertex 298.13623046875 150 100.2236328125
  endloop
 endfacet
 facet normal 0.29028332985911448 -0.95694074445908328 0
  outer loop
   vertex 178.89993286132812 4.710205078125 -29.776275634765625
   vertex 206.6893310546875 13.139984130859375 -29.7763671875
   vertex 206.6893310546875 13.139984130859375 100.2236328125
  endloop
 endfacet
 facet normal 0.29028332985911448 -0.95694074445908328 0
  outer loop
   vertex 178.89993286132812 4.710205078125 -29.776275634765625
   vertex 206.6893310546875 13.139984130859375 100.2236328125
   vertex 178.89993286132812 4.710205078125 100.22372436523438
  endloop
 endfacet
 facet normal -0.88192032276688426 -0.47139849839679671 0
  outer loop
   vertex 13.139984130859375 93.3106689453125 -29.776382446289062
   vertex 26.829292297363281 67.699897766113281 -29.776268005371094
   vertex 26.829292297363281 67.699897766113281 100.22372436523438
  endloop
 endfacet
 facet normal -0.88192032276688426 -0.47139849839679665 0
  outer loop
   vertex 13.139984130859375 93.3106689453125 -29.776382446289062
   vertex 26.829292297363281 67.699897766113281 100.22372436523438
   vertex 13.139984130859375 93.3106689453125 100.22361755371094
  endloop
 endfacet
 facet normal 0.29028332985911448 0.95694074445908328 -0
  outer loop
   vertex 206.6893310546875 286.86001586914062 -29.7763671875
   vertex 178.89993286132812 295.289794921875 -29.776275634765625
   vertex 178.89993286132812 295.289794921875 100.22372436523438
  endloop
 endfacet
 facet normal 0.29028332985911448 0.95694074445908328 0
  outer loop
   vertex 206.6893310546875 286.86001586914062 -29.7763671875
   vertex 178.89993286132812 295.289794921875 100.22372436523438
   vertex 206.6893310546875 286.86001586914062 100.2236328125
  endloop
 endfacet
 facet normal -0.63439511509256219 0.77300895075457876 0
  outer loop
   vertex 67.699905395507812 273.1707763671875 -29.776390075683594
   vertex 45.251815795898438 254.74801635742188 -29.776275634765625
   vertex 45.251815795898438 254.74801635742188 100.22372436523438
  endloop
 endfacet
 facet normal -0.63439511509256219 0.77300895075457865 0
  outer loop
   vertex 67.699905395507812 273.1707763671875 -29.776390075683594
   vertex 45.251815795898438 254.74801635742188 100.22372436523438
   vertex 67.699905395507812 273.1707763671875 100.22360229492188
  endloop
 endfacet
 facet normal 0.99518448525155434 -0.098019591483533772 0
  outer loop
   vertex 295.28976440429688 121.10007476806641 -29.776222229003906
   vertex 298.13623046875 150 -29.7763671875
   vertex 298.13623046875 150 100.2236328125
  endloop
 endfacet
 facet normal 0.99518448525155434 -0.098019591483533772 0
  outer loop
   vertex 295.28976440429688 121.10007476806641 -29.776222229003906
   vertex 298.13623046875 150 100.2236328125
   vertex 295.28976440429688 121.10007476806641 100.22378540039062
  endloop
 endfacet
 facet normal -0.95694059849923274 -0.29028381102626155 0
  outer loop
   vertex 4.7101898193359375 121.10006713867188 -29.77630615234375
   vertex 13.139984130859375 93.3106689453125 -29.776382446289062
   vertex 13.139984130859375 93.3106689453125 100.22361755371094
  endloop
 endfacet
 facet normal -0.95694059849923274 -0.29028381102626155 0
  outer loop
   vertex 4.7101898193359375 121.10006713867188 -29.77630615234375
   vertex 13.139984130859375 93.3106689453125 100.22361755371094
   vertex 4.7101898193359375 121.10006713867188 100.22369384765625
  endloop
 endfacet
 facet normal 0.098018303780186583 -0.99518461208162523 0
  outer loop
   vertex 149.99993896484375 1.8637700080871582 -29.7763671875
   vertex 178.89993286132812 4.710205078125 -29.776275634765625
   vertex 178.89993286132812 4.710205078125 100.22372436523438
  endloop
 endfacet
 facet normal 0.098018303780186583 -0.99518461208162523 0
  outer loop
   vertex 149.99993896484375 1.8637700080871582 -29.7763671875
   vertex 178.89993286132812 4.710205078125 100.22372436523438
   vertex 149.99993896484375 1.8637700080871582 100.2236328125
  endloop
 endfacet
 facet normal 0.47139905861807502 0.88192002332070496 -0
  outer loop
   vertex 232.300048828125 273.17071533203125 -29.776229858398438
   vertex 206.6893310546875 286.86001586914062 -29.7763671875
   vertex 206.6893310546875 286.86001586914062 100.2236328125
  endloop
 endfacet
 facet normal 0.47139905861807502 0.88192002332070496 0
  outer loop
   vertex 232.300048828125 273.17071533203125 -29.776229858398438
   vertex 206.6893310546875 286.86001586914062 100.2236328125
   vertex 232.300048828125 273.17071533203125 100.22377014160156
  endloop
 endfacet
 facet normal -0.47139496457453289 0.88192221163420914 0
  outer loop
   vertex 93.31085205078125 286.86004638671875 -29.776290893554688
   vertex 67.699905395507812 273.1707763671875 -29.776390075683594
   vertex 67.699905395507812 273.1707763671875 100.22360229492188
  endloop
 endfacet
 facet normal -0.47139496457453295 0.88192221163420925 0
  outer loop
   vertex 93.31085205078125 286.86004638671875 -29.776290893554688
   vertex 67.699905395507812 273.1707763671875 100.22360229492188
   vertex 93.31085205078125 286.86004638671875 100.22370910644531
  endloop
 endfacet
 facet normal -0.95694112905553574 0.29028206200507228 0
  outer loop
   vertex 295.28976440429688 121.10007476806641 -29.776222229003906
   vertex 286.86004638671875 93.310745239257812 -29.776351928710938
   vertex 286.86004638671875 93.310745239257812 40.223648071289062
  endloop
 endfacet
 facet normal -0.95694112905553563 0.29028206200507228 0
  outer loop
   vertex 295.28976440429688 121.10007476806641 -29.776222229003906
   vertex 286.86004638671875 93.310745239257812 40.223648071289062
   vertex 295.28976440429688 121.10007476806641 40.223785400390625
  endloop
 endfacet
 facet normal 0.098019617111464966 0.99518448272735927 -0
  outer loop
   vertex 149.99993896484375 1.8637700080871582 -29.7763671875
   vertex 121.10002136230469 4.7102360725402832 -29.776214599609375
   vertex 121.10002136230469 4.7102360725402832 40.223785400390625
  endloop
 endfacet
 facet normal 0.098019617111464966 0.99518448272735927 0
  outer loop
   vertex 149.99993896484375 1.8637700080871582 -29.7763671875
   vertex 121.10002136230469 4.7102360725402832 40.223785400390625
   vertex 149.99993896484375 1.8637700080871582 40.2236328125
  endloop
 endfacet
 facet normal 0.99518469279690214 0.098017484270591079 -0
  outer loop
   vertex 4.7101898193359375 121.10006713867188 -29.77630615234375
   vertex 1.8637847900390625 150 -29.776321411132812
   vertex 1.8637847900390625 150 40.223678588867188
  endloop
 endfacet
 facet normal 0.99518469279690214 0.098017484270591079 0
  outer loop
   vertex 4.7101898193359375 121.10006713867188 -29.77630615234375
   vertex 1.8637847900390625 150 40.223678588867188
   vertex 4.7101898193359375 121.10006713867188 40.22369384765625
  endloop
 endfacet
 facet normal -0.63439134737705916 -0.77301204283835034 0
  outer loop
   vertex 232.300048828125 273.17071533203125 -29.776229858398438
   vertex 254.74813842773438 254.74813842773438 -29.776374816894531
   vertex 254.74813842773438 254.74813842773438 40.2236328125
  endloop
 endfacet
 facet normal -0.63439134737705904 -0.77301204283835023 0
  outer loop
   vertex 232.300048828125 273.17071533203125 -29.776229858398438
   vertex 254.74813842773438 254.74813842773438 40.2236328125
   vertex 232.300048828125 273.17071533203125 40.223770141601562
  endloop
 endfacet
 facet normal 0.29028359458851111 -0.95694066415466583 0
  outer loop
   vertex 93.31085205078125 286.86004638671875 -29.776290893554688
   vertex 121.10002136230469 295.28976440429688 -29.776214599609375
   vertex 121.10002136230469 295.28976440429688 40.223785400390625
  endloop
 endfacet
 facet normal 0.29028359458851111 -0.95694066415466583 0
  outer loop
   vertex 93.31085205078125 286.86004638671875 -29.776290893554688
   vertex 121.10002136230469 295.28976440429688 40.223785400390625
   vertex 93.31085205078125 286.86004638671875 40.223709106445312
  endloop
 endfacet
 facet normal -0.8819208688818978 0.47139747669095378 0
  outer loop
   vertex 286.86004638671875 93.310745239257812 -29.776351928710938
   vertex 273.1707763671875 67.699974060058594 -29.776268005371094
   vertex 273.1707763671875 67.699974060058594 40.223724365234375
  endloop
 endfacet
 facet normal -0.88192086888189791 0.47139747669095383 0
  outer loop
   vertex 286.86004638671875 93.310745239257812 -29.776351928710938
   vertex 273.1707763671875 67.699974060058594 40.223724365234375
   vertex 286.86004638671875 93.310745239257812 40.223648071289062
  endloop
 endfacet
 facet normal -0.098018320042536272 -0.99518461047990436 0
  outer loop
   vertex 149.99993896484375 298.13623046875 -29.7763671875
   vertex 178.89993286132812 295.289794921875 -29.776275634765625
   vertex 178.89993286132812 295.289794921875 40.223724365234375
  endloop
 endfacet
 facet normal -0.098018320042536272 -0.99518461047990436 0
  outer loop
   vertex 149.99993896484375 298.13623046875 -29.7763671875
   vertex 178.89993286132812 295.289794921875 40.223724365234375
   vertex 149.99993896484375 298.13623046875 40.2236328125
  endloop
 endfacet
 facet normal 0.29028357955191419 0.95694066871594896 -0
  outer loop
   vertex 121.10002136230469 4.7102360725402832 -29.776214599609375
   vertex 93.31085205078125 13.13995361328125 -29.776290893554688
   vertex 93.31085205078125 13.13995361328125 40.223709106445312
  endloop
 endfacet
 facet normal 0.29028357955191419 0.95694066871594896 0
  outer loop
   vertex 121.10002136230469 4.7102360725402832 -29.776214599609375
   vertex 93.31085205078125 13.13995361328125 40.223709106445312
   vertex 121.10002136230469 4.7102360725402832 40.223785400390625
  endloop
 endfacet
 facet normal 0.99518469279690214 -0.098017484270591079 0
  outer loop
   vertex 1.8637847900390625 150 -29.776321411132812
   vertex 4.7101898193359375 178.89993286132812 -29.77630615234375
   vertex 4.7101898193359375 178.89993286132812 40.22369384765625
  endloop
 endfacet
 facet normal 0.99518469279690214 -0.098017484270591079 0
  outer loop
   vertex 1.8637847900390625 150 -29.776321411132812
   vertex 4.7101898193359375 178.89993286132812 40.22369384765625
   vertex 1.8637847900390625 150 40.223678588867188
  endloop
 endfacet
 facet normal -0.77301143507651704 -0.63439208794005586 0
  outer loop
   vertex 254.74813842773438 254.74813842773438 -29.776374816894531
   vertex 273.1707763671875 232.30001831054688 -29.776268005371094
   vertex 273.1707763671875 232.30001831054688 40.223724365234375
  endloop
 endfacet
 facet normal -0.77301143507651704 -0.63439208794005586 0
  outer loop
   vertex 254.74813842773438 254.74813842773438 -29.776374816894531
   vertex 273.1707763671875 232.30001831054688 40.223724365234375
   vertex 254.74813842773438 254.74813842773438 40.2236328125
  endloop
 endfacet
 facet normal 0.098019617111464966 -0.99518448272735927 0
  outer loop
   vertex 121.10002136230469 295.28976440429688 -29.776214599609375
   vertex 149.99993896484375 298.13623046875 -29.7763671875
   vertex 149.99993896484375 298.13623046875 40.2236328125
  endloop
 endfacet
 facet normal 0.098019617111464966 -0.99518448272735927 0
  outer loop
   vertex 121.10002136230469 295.28976440429688 -29.776214599609375
   vertex 149.99993896484375 298.13623046875 40.2236328125
   vertex 121.10002136230469 295.28976440429688 40.223785400390625
  endloop
 endfacet
 facet normal -0.77301143507651704 0.63439208794005586 0
  outer loop
   vertex 273.1707763671875 67.699974060058594 -29.776268005371094
   vertex 254.74813842773438 45.251853942871094 -29.776374816894531
   vertex 254.74813842773438 45.251853942871094 40.2236328125
  endloop
 endfacet
 facet normal -0.77301143507651704 0.63439208794005586 0
  outer loop
   vertex 273.1707763671875 67.699974060058594 -29.776268005371094
   vertex 254.74813842773438 45.251853942871094 40.2236328125
   vertex 273.1707763671875 67.699974060058594 40.223724365234375
  endloop
 endfacet
 facet normal 0.47139476023360327 0.88192232085615319 -0
  outer loop
   vertex 93.31085205078125 13.13995361328125 -29.776290893554688
   vertex 67.699905395507812 26.829216003417969 -29.776390075683594
   vertex 67.699905395507812 26.829216003417969 40.223602294921875
  endloop
 endfacet
 facet normal 0.47139476023360327 0.88192232085615319 0
  outer loop
   vertex 93.31085205078125 13.13995361328125 -29.776290893554688
   vertex 67.699905395507812 26.829216003417969 40.223602294921875
   vertex 93.31085205078125 13.13995361328125 40.223709106445312
  endloop
 endfacet
 facet normal 0.95694059849923274 -0.2902838110262615 0
  outer loop
   vertex 4.7101898193359375 178.89993286132812 -29.77630615234375
   vertex 13.139984130859375 206.6893310546875 -29.776382446289062
   vertex 13.139984130859375 206.6893310546875 40.223617553710938
  endloop
 endfacet
 facet normal 0.95694059849923274 -0.2902838110262615 0
  outer loop
   vertex 4.7101898193359375 178.89993286132812 -29.77630615234375
   vertex 13.139984130859375 206.6893310546875 40.223617553710938
   vertex 4.7101898193359375 178.89993286132812 40.22369384765625
  endloop
 endfacet
 facet normal -0.88192081050087567 -0.4713975859139275 0
  outer loop
   vertex 273.1707763671875 232.30001831054688 -29.776268005371094
   vertex 286.86004638671875 206.68925476074219 -29.776351928710938
   vertex 286.86004638671875 206.68925476074219 40.223648071289062
  endloop
 endfacet
 facet normal -0.88192081050087567 -0.4713975859139275 0
  outer loop
   vertex 273.1707763671875 232.30001831054688 -29.776268005371094
   vertex 286.86004638671875 206.68925476074219 40.223648071289062
   vertex 273.1707763671875 232.30001831054688 40.223724365234375
  endloop
 endfacet
 facet normal -0.63439119038793201 0.77301217167531244 0
  outer loop
   vertex 254.74813842773438 45.251853942871094 -29.776374816894531
   vertex 232.300048828125 26.82928466796875 -29.776229858398438
   vertex 232.300048828125 26.82928466796875 40.223770141601562
  endloop
 endfacet
 facet normal -0.6343911903879319 0.77301217167531233 0
  outer loop
   vertex 254.74813842773438 45.251853942871094 -29.776374816894531
   vertex 232.300048828125 26.82928466796875 40.223770141601562
   vertex 254.74813842773438 45.251853942871094 40.2236328125
  endloop
 endfacet
 facet normal 0.63439527207972701 0.77300882191789322 -0
  outer loop
   vertex 67.699905395507812 26.829216003417969 -29.776390075683594
   vertex 45.251815795898438 45.251983642578125 -29.776275634765625
   vertex 45.251815795898438 45.251983642578125 40.223724365234375
  endloop
 endfacet
 facet normal 0.6343952720797269 0.77300882191789311 0
  outer loop
   vertex 67.699905395507812 26.829216003417969 -29.776390075683594
   vertex 45.251815795898438 45.251983642578125 40.223724365234375
   vertex 67.699905395507812 26.829216003417969 40.223602294921875
  endloop
 endfacet
 facet normal 0.8819203811480828 -0.47139838917376492 0
  outer loop
   vertex 13.139984130859375 206.6893310546875 -29.776382446289062
   vertex 26.829292297363281 232.30010986328125 -29.776260375976562
   vertex 26.829292297363281 232.30010986328125 40.223739624023438
  endloop
 endfacet
 facet normal 0.8819203811480828 -0.47139838917376492 0
  outer loop
   vertex 13.139984130859375 206.6893310546875 -29.776382446289062
   vertex 26.829292297363281 232.30010986328125 40.223739624023438
   vertex 13.139984130859375 206.6893310546875 40.223617553710938
  endloop
 endfacet
 facet normal -0.95694110691756595 -0.29028213498488598 0
  outer loop
   vertex 286.86004638671875 206.68925476074219 -29.776351928710938
   vertex 295.28976440429688 178.89993286132812 -29.776222229003906
   vertex 295.28976440429688 178.89993286132812 40.223785400390625
  endloop
 endfacet
 facet normal -0.95694110691756606 -0.29028213498488598 0
  outer loop
   vertex 286.86004638671875 206.68925476074219 -29.776351928710938
   vertex 295.28976440429688 178.89993286132812 40.223785400390625
   vertex 286.86004638671875 206.68925476074219 40.223648071289062
  endloop
 endfacet
 facet normal -0.47139905861807502 0.88192002332070496 0
  outer loop
   vertex 232.300048828125 26.82928466796875 -29.776229858398438
   vertex 206.6893310546875 13.139984130859375 -29.7763671875
   vertex 206.6893310546875 13.139984130859375 40.2236328125
  endloop
 endfacet
 facet normal -0.47139905861807502 0.88192002332070496 0
  outer loop
   vertex 232.300048828125 26.82928466796875 -29.776229858398438
   vertex 206.6893310546875 13.139984130859375 40.2236328125
   vertex 232.300048828125 26.82928466796875 40.223770141601562
  endloop
 endfacet
 facet normal 0.77301051282186328 0.63439321171248353 -0
  outer loop
   vertex 45.251815795898438 45.251983642578125 -29.776275634765625
   vertex 26.829292297363281 67.699897766113281 -29.776268005371094
   vertex 26.829292297363281 67.699897766113281 40.223724365234375
  endloop
 endfacet
 facet normal 0.77301051282186328 0.63439321171248353 0
  outer loop
   vertex 45.251815795898438 45.251983642578125 -29.776275634765625
   vertex 26.829292297363281 67.699897766113281 40.223724365234375
   vertex 45.251815795898438 45.251983642578125 40.223724365234375
  endloop
 endfacet
 facet normal 0.77301040708737478 -0.63439334055033325 0
  outer loop
   vertex 26.829292297363281 232.30010986328125 -29.776260375976562
   vertex 45.251815795898438 254.74801635742188 -29.776275634765625
   vertex 45.251815795898438 254.74801635742188 40.223724365234375
  endloop
 endfacet
 facet normal 0.77301040708737478 -0.63439334055033325 0
  outer loop
   vertex 26.829292297363281 232.30010986328125 -29.776260375976562
   vertex 45.251815795898438 254.74801635742188 40.223724365234375
   vertex 26.829292297363281 232.30010986328125 40.223739624023438
  endloop
 endfacet
 facet normal -0.99518448777574731 -0.098019565855615914 0
  outer loop
   vertex 295.28976440429688 178.89993286132812 -29.776222229003906
   vertex 298.13623046875 150 -29.7763671875
   vertex 298.13623046875 150 40.2236328125
  endloop
 endfacet
 facet normal -0.99518448777574731 -0.098019565855615914 0
  outer loop
   vertex 295.28976440429688 178.89993286132812 -29.776222229003906
   vertex 298.13623046875 150 40.2236328125
   vertex 295.28976440429688 178.89993286132812 40.223785400390625
  endloop
 endfacet
 facet normal -0.29028332985911448 0.95694074445908328 0
  outer loop
   vertex 206.6893310546875 13.139984130859375 -29.7763671875
   vertex 178.89993286132812 4.710205078125 -29.776275634765625
   vertex 178.89993286132812 4.710205078125 40.223724365234375
  endloop
 endfacet
 facet normal -0.29028332985911448 0.95694074445908328 0
  outer loop
   vertex 206.6893310546875 13.139984130859375 -29.7763671875
   vertex 178.89993286132812 4.710205078125 40.223724365234375
   vertex 206.6893310546875 13.139984130859375 40.2236328125
  endloop
 endfacet
 facet normal 0.88192032276688426 0.47139849839679671 -0
  outer loop
   vertex 26.829292297363281 67.699897766113281 -29.776268005371094
   vertex 13.139984130859375 93.3106689453125 -29.776382446289062
   vertex 13.139984130859375 93.3106689453125 40.223617553710938
  endloop
 endfacet
 facet normal 0.88192032276688426 0.47139849839679671 0
  outer loop
   vertex 26.829292297363281 67.699897766113281 -29.776268005371094
   vertex 13.139984130859375 93.3106689453125 40.223617553710938
   vertex 26.829292297363281 67.699897766113281 40.223724365234375
  endloop
 endfacet
 facet normal -0.29028332985911448 -0.95694074445908328 0
  outer loop
   vertex 178.89993286132812 295.289794921875 -29.776275634765625
   vertex 206.6893310546875 286.86001586914062 -29.7763671875
   vertex 206.6893310546875 286.86001586914062 40.2236328125
  endloop
 endfacet
 facet normal -0.29028332985911448 -0.95694074445908328 0
  outer loop
   vertex 178.89993286132812 295.289794921875 -29.776275634765625
   vertex 206.6893310546875 286.86001586914062 40.2236328125
   vertex 178.89993286132812 295.289794921875 40.223724365234375
  endloop
 endfacet
 facet normal 0.63439511509256219 -0.77300895075457876 0
  outer loop
   vertex 45.251815795898438 254.74801635742188 -29.776275634765625
   vertex 67.699905395507812 273.1707763671875 -29.776390075683594
   vertex 67.699905395507812 273.1707763671875 40.223602294921875
  endloop
 endfacet
 facet normal 0.63439511509256219 -0.77300895075457876 0
  outer loop
   vertex 45.251815795898438 254.74801635742188 -29.776275634765625
   vertex 67.699905395507812 273.1707763671875 40.223602294921875
   vertex 45.251815795898438 254.74801635742188 40.223724365234375
  endloop
 endfacet
 facet normal -0.99518448525155434 0.098019591483533772 0
  outer loop
   vertex 298.13623046875 150 -29.7763671875
   vertex 295.28976440429688 121.10007476806641 -29.776222229003906
   vertex 295.28976440429688 121.10007476806641 40.223785400390625
  endloop
 endfacet
 facet normal -0.99518448525155434 0.098019591483533772 0
  outer loop
   vertex 298.13623046875 150 -29.7763671875
   vertex 295.28976440429688 121.10007476806641 40.223785400390625
   vertex 298.13623046875 150 40.2236328125
  endloop
 endfacet
 facet normal 0.95694059849923274 0.2902838110262615 -0
  outer loop
   vertex 13.139984130859375 93.3106689453125 -29.776382446289062
   vertex 4.7101898193359375 121.10006713867188 -29.77630615234375
   vertex 4.7101898193359375 121.10006713867188 40.22369384765625
  endloop
 endfacet
 facet normal 0.95694059849923274 0.2902838110262615 0
  outer loop
   vertex 13.139984130859375 93.3106689453125 -29.776382446289062
   vertex 4.7101898193359375 121.10006713867188 40.22369384765625
   vertex 13.139984130859375 93.3106689453125 40.223617553710938
  endloop
 endfacet
 facet normal -0.098018303780186583 0.99518461208162534 0
  outer loop
   vertex 178.89993286132812 4.710205078125 -29.776275634765625
   vertex 149.99993896484375 1.8637700080871582 -29.7763671875
   vertex 149.99993896484375 1.8637700080871582 40.2236328125
  endloop
 endfacet
 facet normal -0.098018303780186583 0.99518461208162534 0
  outer loop
   vertex 178.89993286132812 4.710205078125 -29.776275634765625
   vertex 149.99993896484375 1.8637700080871582 40.2236328125
   vertex 178.89993286132812 4.710205078125 40.223724365234375
  endloop
 endfacet
 facet normal -0.47139905861807502 -0.88192002332070496 0
  outer loop
   vertex 206.6893310546875 286.86001586914062 -29.7763671875
   vertex 232.300048828125 273.17071533203125 -29.776229858398438
   vertex 232.300048828125 273.17071533203125 40.223770141601562
  endloop
 endfacet
 facet normal -0.47139905861807502 -0.88192002332070496 0
  outer loop
   vertex 206.6893310546875 286.86001586914062 -29.7763671875
   vertex 232.300048828125 273.17071533203125 40.223770141601562
   vertex 206.6893310546875 286.86001586914062 40.2236328125
  endloop
 endfacet
 facet normal 0.47139496457453289 -0.88192221163420925 0
  outer loop
   vertex 67.699905395507812 273.1707763671875 -29.776390075683594
   vertex 93.31085205078125 286.86004638671875 -29.776290893554688
   vertex 93.31085205078125 286.86004638671875 40.223709106445312
  endloop
 endfacet
 facet normal 0.47139496457453289 -0.88192221163420914 0
  outer loop
   vertex 67.699905395507812 273.1707763671875 -29.776390075683594
   vertex 93.31085205078125 286.86004638671875 40.223709106445312
   vertex 67.699905395507812 273.1707763671875 40.223602294921875
  endloop
 endfacet
 facet normal 0 0 -1
  outer loop
   vertex 151.95089721679688 159.80784606933594 -160
   vertex 148.04910278320312 159.80784606933594 -160
   vertex 150 160 -160
  endloop
 endfacet
 facet normal 0 0 -1
  outer loop
   vertex 153.82682800292969 159.23880004882812 -160
   vertex 155.55569458007812 158.314697265625 -160
   vertex 151.95089721679688 159.80784606933594 -160
  endloop
 endfacet
 facet normal 0 0 -1
  outer loop
   vertex 155.55569458007812 158.314697265625 -160
   vertex 148.04910278320312 159.80784606933594 -160
   vertex 151.95089721679688 159.80784606933594 -160
  endloop
 endfacet
 facet normal 0 0 -1
  outer loop
   vertex 155.55569458007812 158.314697265625 -160
   vertex 144.44430541992188 158.314697265625 -160
   vertex 146.17317199707031 159.23880004882812 -160
  endloop
 endfacet
 facet normal 0 0 -1
  outer loop
   vertex 157.07107543945312 157.07107543945312 -160
   vertex 144.44430541992188 158.314697265625 -160
   vertex 155.55569458007812 158.314697265625 -160
  endloop
 endfacet
 facet normal 0 0 -1
  outer loop
   vertex 157.07107543945312 157.07107543945312 -160
   vertex 142.92892456054688 157.07107543945312 -160
   vertex 144.44430541992188 158.314697265625 -160
  endloop
 endfacet
 facet normal 0 0 -1
  outer loop
   vertex 158.314697265625 155.55569458007812 -160
   vertex 142.92892456054688 157.07107543945312 -160
   vertex 157.07107543945312 157.07107543945312 -160
  endloop
 endfacet
 facet normal 0 0 -1
  outer loop
   vertex 158.314697265625 155.55569458007812 -160
   vertex 141.685302734375 155.55569458007812 -160
   vertex 142.92892456054688 157.07107543945312 -160
  endloop
 endfacet
 facet normal 0 0 -1
  outer loop
   vertex 159.23880004882812 153.82682800292969 -160
   vertex 159.80784606933594 151.95089721679688 -160
   vertex 158.314697265625 155.55569458007812 -160
  endloop
 endfacet
 facet normal 0 0 -1
  outer loop
   vertex 141.685302734375 155.55569458007812 -160
   vertex 159.80784606933594 151.95089721679688 -160
   vertex 140.19215393066406 151.95089721679688 -160
  endloop
 endfacet
 facet normal 0 0 -1
  outer loop
   vertex 159.80784606933594 151.95089721679688 -160
   vertex 141.685302734375 155.55569458007812 -160
   vertex 158.314697265625 155.55569458007812 -160
  endloop
 endfacet
 facet normal 0 0 -1
  outer loop
   vertex 140.76119995117188 153.82682800292969 -160
   vertex 141.685302734375 155.55569458007812 -160
   vertex 140.19215393066406 151.95089721679688 -160
  endloop
 endfacet
 facet normal 0 0 -1
  outer loop
   vertex 160 150 -160
   vertex 140.19215393066406 151.95089721679688 -160
   vertex 159.80784606933594 151.95089721679688 -160
  endloop
 endfacet
 facet normal 0 0 -1
  outer loop
   vertex 160 150 -160
   vertex 140 150 -160
   vertex 140.19215393066406 151.95089721679688 -160
  endloop
 endfacet
 facet normal 0 0 -1
  outer loop
   vertex 159.80784606933594 148.04910278320312 -160
   vertex 140.19215393066406 148.04910278320312 -160
   vertex 160 150 -160
  endloop
 endfacet
 facet normal 0 0 -1
  outer loop
   vertex 155.55569458007812 158.314697265625 -160
   vertex 146.17317199707031 159.23880004882812 -160
   vertex 148.04910278320312 159.80784606933594 -160
  endloop
 endfacet
 facet normal 0 0 -1
  outer loop
   vertex 159.23880004882812 146.17317199707031 -160
   vertex 140.19215393066406 148.04910278320312 -160
   vertex 159.80784606933594 148.04910278320312 -160
  endloop
 endfacet
 facet normal 0 0 -1
  outer loop
   vertex 159.23880004882812 146.17317199707031 -160
   vertex 140.76119995117188 146.17317199707031 -160
   vertex 140.19215393066406 148.04910278320312 -160
  endloop
 endfacet
 facet normal 0 0 -1
  outer loop
   vertex 158.314697265625 144.44430541992188 -160
   vertex 140.76119995117188 146.17317199707031 -160
   vertex 159.23880004882812 146.17317199707031 -160
  endloop
 endfacet
 facet normal 0 0 -1
  outer loop
   vertex 158.314697265625 144.44430541992188 -160
   vertex 141.685302734375 144.44430541992188 -160
   vertex 140.76119995117188 146.17317199707031 -160
  endloop
 endfacet
 facet normal 0 0 -1
  outer loop
   vertex 157.07107543945312 142.92892456054688 -160
   vertex 141.685302734375 144.44430541992188 -160
   vertex 158.314697265625 144.44430541992188 -160
  endloop
 endfacet
 facet normal 0 0 -1
  outer loop
   vertex 157.07107543945312 142.92892456054688 -160
   vertex 142.92892456054688 142.92892456054688 -160
   vertex 141.685302734375 144.44430541992188 -160
  endloop
 endfacet
 facet normal 0 0 -1
  outer loop
   vertex 155.55569458007812 141.685302734375 -160
   vertex 142.92892456054688 142.92892456054688 -160
   vertex 157.07107543945312 142.92892456054688 -160
  endloop
 endfacet
 facet normal 0 0 -1
  outer loop
   vertex 155.55569458007812 141.685302734375 -160
   vertex 144.44430541992188 141.685302734375 -160
   vertex 142.92892456054688 142.92892456054688 -160
  endloop
 endfacet
 facet normal 0 0 -1
  outer loop
   vertex 153.82682800292969 140.76119995117188 -160
   vertex 144.44430541992188 141.685302734375 -160
   vertex 155.55569458007812 141.685302734375 -160
  endloop
 endfacet
 facet normal 0 0 -1
  outer loop
   vertex 153.82682800292969 140.76119995117188 -160
   vertex 146.17317199707031 140.76119995117188 -160
   vertex 144.44430541992188 141.685302734375 -160
  endloop
 endfacet
 facet normal 0 0 -1
  outer loop
   vertex 151.95089721679688 140.19215393066406 -160
   vertex 146.17317199707031 140.76119995117188 -160
   vertex 153.82682800292969 140.76119995117188 -160
  endloop
 endfacet
 facet normal 0 0 -1
  outer loop
   vertex 151.95089721679688 140.19215393066406 -160
   vertex 148.04910278320312 140.19215393066406 -160
   vertex 146.17317199707031 140.76119995117188 -160
  endloop
 endfacet
 facet normal 0 0 -1
  outer loop
   vertex 150 140 -160
   vertex 148.04910278320312 140.19215393066406 -160
   vertex 151.95089721679688 140.19215393066406 -160
  endloop
 endfacet
 facet normal 0 0 -1
  outer loop
   vertex 140.19215393066406 148.04910278320312 -160
   vertex 140 150 -160
   vertex 160 150 -160
  endloop
 endfacet
 facet normal 1.055950534547293e-06 4.2885108861214965e-05 0.99999999907987625
  outer loop
   vertex 121.10002136230469 295.28976440429688 100.22378540039062
   vertex 178.89993286132812 295.289794921875 100.22372436523438
   vertex 149.99993896484375 298.13623046875 100.2236328125
  endloop
 endfacet
 facet normal 1.0559707395638486e-06 4.6188778661545411e-06 0.99999999998877542
  outer loop
   vertex 121.10002136230469 295.28976440429688 100.22378540039062
   vertex 232.300048828125 273.17071533203125 100.22377014160156
   vertex 178.89993286132812 295.289794921875 100.22372436523438
  endloop
 endfacet
 facet normal -1.4335423117072661e-06 -1.1764775461201065e-06 0.99999999999828038
  outer loop
   vertex 26.829292297363281 67.699897766113281 100.22372436523438
   vertex 45.251815795898438 45.251983642578125 100.22372436523438
   vertex 121.10002136230469 4.7102360725402832 100.22378540039062
  endloop
 endfacet
 facet normal -5.2921916075733715e-06 8.3954959294676158e-06 0.99999999995075428
  outer loop
   vertex 121.10002136230469 295.28976440429688 100.22378540039062
   vertex 93.31085205078125 286.86004638671875 100.22370910644531
   vertex 45.251815795898438 254.74801635742188 100.22372436523438
  endloop
 endfacet
 facet normal -2.2116920610905091e-05 3.3575475532140557e-05 0.99999999919176463
  outer loop
   vertex 93.31085205078125 286.86004638671875 100.22370910644531
   vertex 67.699905395507812 273.1707763671875 100.22360229492188
   vertex 45.251815795898438 254.74801635742188 100.22372436523438
  endloop
 endfacet
 facet normal -2.0808004710706453e-06 2.3874112559438095e-06 0.99999999999498534
  outer loop
   vertex 45.251815795898438 254.74801635742188 100.22372436523438
   vertex 26.829292297363281 232.30010986328125 100.22373962402344
   vertex 121.10002136230469 295.28976440429688 100.22378540039062
  endloop
 endfacet
 facet normal 3.8631844205658523e-06 2.7431582740117393e-06 0.99999999998877542
  outer loop
   vertex 295.28976440429688 178.89993286132812 100.22378540039062
   vertex 273.1707763671875 232.30001831054688 100.22372436523438
   vertex 232.300048828125 273.17071533203125 100.22377014160156
  endloop
 endfacet
 facet normal 2.8988993781790889e-05 -2.7868991599566992e-05 0.99999999919147886
  outer loop
   vertex 232.300048828125 26.82928466796875 100.22377014160156
   vertex 254.74813842773438 45.251853942871094 100.2236328125
   vertex 273.1707763671875 67.699974060058594 100.22372436523438
  endloop
 endfacet
 facet normal -1.5951974934837735e-07 5.5273598942308643e-08 0.99999999999998579
  outer loop
   vertex 26.829292297363281 232.30010986328125 100.22373962402344
   vertex 295.28976440429688 178.89993286132812 100.22378540039062
   vertex 232.300048828125 273.17071533203125 100.22377014160156
  endloop
 endfacet
 facet normal -3.2494995487894257e-05 1.2602650512477854e-05 0.99999999939262418
  outer loop
   vertex 13.139984130859375 206.6893310546875 100.22361755371094
   vertex 4.7101898193359375 178.89993286132812 100.22369384765625
   vertex 26.829292297363281 232.30010986328125 100.22373962402344
  endloop
 endfacet
 facet normal -2.0695399929936243e-06 0 0.9999999999978586
  outer loop
   vertex 4.7101898193359375 178.89993286132812 100.22369384765625
   vertex 4.7101898193359375 121.10006713867188 100.22369384765625
   vertex 26.829292297363281 232.30010986328125 100.22373962402344
  endloop
 endfacet
 facet normal -2.9917651316378419e-05 -1.1820824253490735e-05 0.9999999994826011
  outer loop
   vertex 4.7101898193359375 121.10006713867188 100.22369384765625
   vertex 13.139984130859375 93.3106689453125 100.22361755371094
   vertex 26.829292297363281 67.699897766113281 100.22372436523438
  endloop
 endfacet
 facet normal 3.426405627631596e-05 1.5335582334684269e-05 0.99999999929539718
  outer loop
   vertex 286.86004638671875 206.68925476074219 100.22364807128906
   vertex 273.1707763671875 232.30001831054688 100.22372436523438
   vertex 295.28976440429688 178.89993286132812 100.22378540039062
  endloop
 endfacet
 facet normal -5.3607230542485408e-06 0 0.99999999998563127
  outer loop
   vertex 1.8637847900390625 150 100.22367858886719
   vertex 4.7101898193359375 121.10006713867188 100.22369384765625
   vertex 4.7101898193359375 178.89993286132812 100.22369384765625
  endloop
 endfacet
 facet normal -2.4279193671333557e-07 -3.6336341667207363e-07 0.99999999999990441
  outer loop
   vertex 4.7101898193359375 121.10006713867188 100.22369384765625
   vertex 295.28976440429688 178.89993286132812 100.22378540039062
   vertex 26.829292297363281 232.30010986328125 100.22373962402344
  endloop
 endfacet
 facet normal 5.3606080996815484e-05 0 0.9999999985631941
  outer loop
   vertex 298.13623046875 150 100.2236328125
   vertex 295.28976440429688 178.89993286132812 100.22378540039062
   vertex 295.28976440429688 121.10007476806641 100.22378540039062
  endloop
 endfacet
 facet normal -3.9330206596943544e-07 3.9330217040431968e-07 0.99999999999984535
  outer loop
   vertex 121.10002136230469 4.7102360725402832 100.22378540039062
   vertex 295.28976440429688 178.89993286132812 100.22378540039062
   vertex 4.7101898193359375 121.10006713867188 100.22369384765625
  endloop
 endfacet
 facet normal 0 0 1
  outer loop
   vertex 295.28976440429688 121.10007476806641 100.22378540039062
   vertex 295.28976440429688 178.89993286132812 100.22378540039062
   vertex 121.10002136230469 4.7102360725402832 100.22378540039062
  endloop
 endfacet
 facet normal 3.4264057825596744e-05 -1.5335578594356252e-05 0.99999999929539718
  outer loop
   vertex 273.1707763671875 67.699974060058594 100.22372436523438
   vertex 286.86004638671875 93.310745239257812 100.22364807128906
   vertex 295.28976440429688 121.10007476806641 100.22378540039062
  endloop
 endfacet
 facet normal -5.6530199022366095e-09 -7.1826799511061797e-07 0.9999999999997421
  outer loop
   vertex 26.829292297363281 232.30010986328125 100.22373962402344
   vertex 232.300048828125 273.17071533203125 100.22377014160156
   vertex 121.10002136230469 295.28976440429688 100.22378540039062
  endloop
 endfacet
 facet normal 3.8631822083130138e-06 -2.7431565738264155e-06 0.99999999998877553
  outer loop
   vertex 273.1707763671875 67.699974060058594 100.22372436523438
   vertex 295.28976440429688 121.10007476806641 100.22378540039062
   vertex 232.300048828125 26.82928466796875 100.22377014160156
  endloop
 endfacet
 facet normal -3.6722600833823885e-07 4.1937822814234666e-07 0.99999999999984457
  outer loop
   vertex 26.829292297363281 67.699897766113281 100.22372436523438
   vertex 121.10002136230469 4.7102360725402832 100.22378540039062
   vertex 4.7101898193359375 121.10006713867188 100.22369384765625
  endloop
 endfacet
 facet normal -2.2116870613951933e-05 -3.3575400706432488e-05 0.9999999991917683
  outer loop
   vertex 67.699905395507812 26.829216003417969 100.22360229492188
   vertex 93.31085205078125 13.13995361328125 100.22370910644531
   vertex 45.251815795898438 45.251983642578125 100.22372436523438
  endloop
 endfacet
 facet normal 1.4654008896033453e-05 3.7447405449794279e-05 0.99999999919147586
  outer loop
   vertex 232.300048828125 273.17071533203125 100.22377014160156
   vertex 206.6893310546875 286.86001586914062 100.2236328125
   vertex 178.89993286132812 295.289794921875 100.22372436523438
  endloop
 endfacet
 facet normal 1.9538371515221068e-07 -2.9241246073023032e-07 0.99999999999993816
  outer loop
   vertex 232.300048828125 26.82928466796875 100.22377014160156
   vertex 295.28976440429688 121.10007476806641 100.22378540039062
   vertex 121.10002136230469 4.7102360725402832 100.22378540039062
  endloop
 endfacet
 facet normal -5.2921913437343602e-06 -8.3954955346047388e-06 0.99999999995075428
  outer loop
   vertex 93.31085205078125 13.13995361328125 100.22370910644531
   vertex 121.10002136230469 4.7102360725402832 100.22378540039062
   vertex 45.251815795898438 45.251983642578125 100.22372436523438
  endloop
 endfacet
 facet normal 1.4654008896033453e-05 -3.7447405449794279e-05 0.99999999919147586
  outer loop
   vertex 206.6893310546875 13.139984130859375 100.2236328125
   vertex 232.300048828125 26.82928466796875 100.22377014160156
   vertex 178.89993286132812 4.710205078125 100.22372436523438
  endloop
 endfacet
 facet normal 1.0559707014591235e-06 -4.6188777741617104e-06 0.99999999998877553
  outer loop
   vertex 178.89993286132812 4.710205078125 100.22372436523438
   vertex 232.300048828125 26.82928466796875 100.22377014160156
   vertex 121.10002136230469 4.7102360725402832 100.22378540039062
  endloop
 endfacet
 facet normal 1.0559501807522051e-06 -4.2885112453265124e-05 0.99999999907987613
  outer loop
   vertex 149.99993896484375 1.8637700080871582 100.2236328125
   vertex 178.89993286132812 4.710205078125 100.22372436523438
   vertex 121.10002136230469 4.7102360725402832 100.22378540039062
  endloop
 endfacet
 facet normal 2.8989022792580153e-05 2.786901540803131e-05 0.99999999919147731
  outer loop
   vertex 273.1707763671875 232.30001831054688 100.22372436523438
   vertex 254.74813842773438 254.74813842773438 100.2236328125
   vertex 232.300048828125 273.17071533203125 100.22377014160156
  endloop
 endfacet
 facet normal 0.095117080082195063 -0.96574396367062365 -0.24143599091765591
  outer loop
   vertex 150 120 100
   vertex 150 150 -20
   vertex 155.85270690917969 120.57643890380859 100
  endloop
 endfacet
 facet normal 0.28169772643855301 -0.92863074376234167 -0.24143598045600048
  outer loop
   vertex 155.85270690917969 120.57643890380859 100
   vertex 150 150 -20
   vertex 161.48049926757812 122.28361511230469 100
  endloop
 endfacet
 facet normal 0.45744995506711944 -0.85583187509626313 -0.24143599602856433
  outer loop
   vertex 161.48049926757812 122.28361511230469 100
   vertex 150 150 -20
   vertex 166.6671142578125 125.055908203125 100
  endloop
 endfacet
 facet normal 0.61562665551365992 -0.750141634924545 -0.24143601341514076
  outer loop
   vertex 166.6671142578125 125.055908203125 100
   vertex 150 150 -20
   vertex 171.21319580078125 128.78678894042969 100
  endloop
 endfacet
 facet normal 0.75014141506402565 -0.61562692657233264 -0.24143600536134818
  outer loop
   vertex 171.21319580078125 128.78678894042969 100
   vertex 150 150 -20
   vertex 174.944091796875 133.3328857421875 100
  endloop
 endfacet
 facet normal 0.85583187509626313 -0.45744995506711944 -0.24143599602856433
  outer loop
   vertex 174.944091796875 133.3328857421875 100
   vertex 150 150 -20
   vertex 177.71638488769531 138.51950073242188 100
  endloop
 endfacet
 facet normal 0.92863110008782523 -0.28169657561737194 -0.24143595265643814
  outer loop
   vertex 177.71638488769531 138.51950073242188 100
   vertex 150 150 -20
   vertex 179.42355346679688 144.14729309082031 100
  endloop
 endfacet
 facet normal 0.96574384802782121 -0.095118327604057293 -0.2414359620069553
  outer loop
   vertex 179.42355346679688 144.14729309082031 100
   vertex 150 150 -20
   vertex 180 150 100
  endloop
 endfacet
 facet normal 0.96574384802782121 0.095118327604057293 -0.2414359620069553
  outer loop
   vertex 180 150 100
   vertex 150 150 -20
   vertex 179.42355346679688 155.85270690917969 100
  endloop
 endfacet
 facet normal 0.92863110008782523 0.28169657561737194 -0.24143595265643814
  outer loop
   vertex 179.42355346679688 155.85270690917969 100
   vertex 150 150 -20
   vertex 177.71638488769531 161.48049926757812 100
  endloop
 endfacet
 facet normal 0.85583132161024578 0.45745100502416092 -0.24143596864022734
  outer loop
   vertex 177.71638488769531 161.48049926757812 100
   vertex 150 150 -20
   vertex 174.944091796875 166.66709899902344 100
  endloop
 endfacet
 facet normal 0.75014142924158755 0.61562693820759062 -0.24143593164343974
  outer loop
   vertex 174.944091796875 166.66709899902344 100
   vertex 150 150 -20
   vertex 171.21319580078125 171.21319580078125 100
  endloop
 endfacet
 facet normal 0.61562816711242563 0.75014040883790789 -0.24143596850157167
  outer loop
   vertex 171.21319580078125 171.21319580078125 100
   vertex 150 150 -20
   vertex 166.6671142578125 174.944091796875 100
  endloop
 endfacet
 facet normal 0.45744995506711944 0.85583187509626313 -0.24143599602856433
  outer loop
   vertex 166.6671142578125 174.944091796875 100
   vertex 150 150 -20
   vertex 161.48049926757812 177.71638488769531 100
  endloop
 endfacet
 facet normal 0.28169657561737194 0.92863110008782523 -0.24143595265643814
  outer loop
   vertex 161.48049926757812 177.71638488769531 100
   vertex 150 150 -20
   vertex 155.85270690917969 179.42355346679688 100
  endloop
 endfacet
 facet normal 0.095118327604057293 0.96574384802782121 -0.2414359620069553
  outer loop
   vertex 155.85270690917969 179.42355346679688 100
   vertex 150 150 -20
   vertex 150 180 100
  endloop
 endfacet
 facet normal -0.095118327604057293 0.96574384802782121 -0.2414359620069553
  outer loop
   vertex 150 180 100
   vertex 150 150 -20
   vertex 144.14729309082031 179.42355346679688 100
  endloop
 endfacet
 facet normal -0.28169657561737194 0.92863110008782523 -0.24143595265643814
  outer loop
   vertex 144.14729309082031 179.42355346679688 100
   vertex 150 150 -20
   vertex 138.51950073242188 177.71638488769531 100
  endloop
 endfacet
 facet normal -0.45744995506711944 0.85583187509626313 -0.24143599602856433
  outer loop
   vertex 138.51950073242188 177.71638488769531 100
   vertex 150 150 -20
   vertex 133.3328857421875 174.944091796875 100
  endloop
 endfacet
 facet normal -0.61562816711242563 0.75014040883790789 -0.24143596850157167
  outer loop
   vertex 133.3328857421875 174.944091796875 100
   vertex 150 150 -20
   vertex 128.78680419921875 171.21319580078125 100
  endloop
 endfacet
 facet normal -0.75014142924158755 0.61562693820759062 -0.24143593164343974
  outer loop
   vertex 128.78680419921875 171.21319580078125 100
   vertex 150 150 -20
   vertex 125.055908203125 166.66709899902344 100
  endloop
 endfacet
 facet normal -0.85583132161024578 0.45745100502416092 -0.24143596864022734
  outer loop
   vertex 125.055908203125 166.66709899902344 100
   vertex 150 150 -20
   vertex 122.28361511230469 161.48049926757812 100
  endloop
 endfacet
 facet normal -0.92863110008782523 0.28169657561737194 -0.24143595265643814
  outer loop
   vertex 122.28361511230469 161.48049926757812 100
   vertex 150 150 -20
   vertex 120.57644653320312 155.85270690917969 100
  endloop
 endfacet
 facet normal -0.96574384802782121 0.095118327604057293 -0.2414359620069553
  outer loop
   vertex 120.57644653320312 155.85270690917969 100
   vertex 150 150 -20
   vertex 120 150 100
  endloop
 endfacet
 facet normal -0.96574384802782121 -0.095118327604057293 -0.2414359620069553
  outer loop
   vertex 120 150 100
   vertex 150 150 -20
   vertex 120.57644653320312 144.14729309082031 100
  endloop
 endfacet
 facet normal -0.92863110008782523 -0.28169657561737194 -0.24143595265643814
  outer loop
   vertex 120.57644653320312 144.14729309082031 100
   vertex 150 150 -20
   vertex 122.28361511230469 138.51950073242188 100
  endloop
 endfacet
 facet normal -0.85583187509626313 -0.45744995506711944 -0.24143599602856433
  outer loop
   vertex 122.28361511230469 138.51950073242188 100
   vertex 150 150 -20
   vertex 125.055908203125 133.3328857421875 100
  endloop
 endfacet
 facet normal -0.75014141506402565 -0.61562692657233264 -0.24143600536134818
  outer loop
   vertex 125.055908203125 133.3328857421875 100
   vertex 150 150 -20
   vertex 128.78680419921875 128.78678894042969 100
  endloop
 endfacet
 facet normal -0.61562665551365992 -0.750141634924545 -0.24143601341514076
  outer loop
   vertex 128.78680419921875 128.78678894042969 100
   vertex 150 150 -20
   vertex 133.3328857421875 125.055908203125 100
  endloop
 endfacet
 facet normal -0.45744995506711944 -0.85583187509626313 -0.24143599602856433
  outer loop
   vertex 133.3328857421875 125.055908203125 100
   vertex 150 150 -20
   vertex 138.51950073242188 122.28361511230469 100
  endloop
 endfacet
 facet normal 0 -0 1
  outer loop
   vertex 144.14729309082031 120.57643890380859 100
   vertex 150 120 100
   vertex 155.85270690917969 120.57643890380859 100
  endloop
 endfacet
 facet normal 0 -0 1
  outer loop
   vertex 155.85270690917969 120.57643890380859 100
   vertex 161.48049926757812 122.28361511230469 100
   vertex 166.6671142578125 125.055908203125 100
  endloop
 endfacet
 facet normal 0 -0 1
  outer loop
   vertex 166.6671142578125 125.055908203125 100
   vertex 171.21319580078125 128.78678894042969 100
   vertex 174.944091796875 133.3328857421875 100
  endloop
 endfacet
 facet normal 0 -0 1
  outer loop
   vertex 174.944091796875 133.3328857421875 100
   vertex 177.71638488769531 138.51950073242188 100
   vertex 179.42355346679688 144.14729309082031 100
  endloop
 endfacet
 facet normal 0 0 1
  outer loop
   vertex 179.42355346679688 144.14729309082031 100
   vertex 180 150 100
   vertex 179.42355346679688 155.85270690917969 100
  endloop
 endfacet
 facet normal 0 0 1
  outer loop
   vertex 179.42355346679688 155.85270690917969 100
   vertex 177.71638488769531 161.48049926757812 100
   vertex 174.944091796875 166.66709899902344 100
  endloop
 endfacet
 facet normal 0 0 1
  outer loop
   vertex 174.944091796875 166.66709899902344 100
   vertex 171.21319580078125 171.21319580078125 100
   vertex 166.6671142578125 174.944091796875 100
  endloop
 endfacet
 facet normal 0 0 1
  outer loop
   vertex 166.6671142578125 174.944091796875 100
   vertex 161.48049926757812 177.71638488769531 100
   vertex 155.85270690917969 179.42355346679688 100
  endloop
 endfacet
 facet normal 0 0 1
  outer loop
   vertex 155.85270690917969 179.42355346679688 100
   vertex 150 180 100
   vertex 144.14729309082031 179.42355346679688 100
  endloop
 endfacet
 facet normal -0 0 1
  outer loop
   vertex 144.14729309082031 179.42355346679688 100
   vertex 138.51950073242188 177.71638488769531 100
   vertex 133.3328857421875 174.944091796875 100
  endloop
 endfacet
 facet normal -0 0 1
  outer loop
   vertex 133.3328857421875 174.944091796875 100
   vertex 128.78680419921875 171.21319580078125 100
   vertex 125.055908203125 166.66709899902344 100
  endloop
 endfacet
 facet normal -0 0 1
  outer loop
   vertex 125.055908203125 166.66709899902344 100
   vertex 122.28361511230469 161.48049926757812 100
   vertex 120.57644653320312 155.85270690917969 100
  endloop
 endfacet
 facet normal -0 0 1
  outer loop
   vertex 120.57644653320312 155.85270690917969 100
   vertex 120 150 100
   vertex 120.57644653320312 144.14729309082031 100
  endloop
 endfacet
 facet normal -0 -0 1
  outer loop
   vertex 120.57644653320312 144.14729309082031 100
   vertex 122.28361511230469 138.51950073242188 100
   vertex 125.055908203125 133.3328857421875 100
  endloop
 endfacet
 facet normal -0 -0 1
  outer loop
   vertex 125.055908203125 133.3328857421875 100
   vertex 128.78680419921875 128.78678894042969 100
   vertex 133.3328857421875 125.055908203125 100
  endloop
 endfacet
 facet normal -0 -0 1
  outer loop
   vertex 133.3328857421875 125.055908203125 100
   vertex 138.51950073242188 122.28361511230469 100
   vertex 144.14729309082031 120.57643890380859 100
  endloop
 endfacet
 facet normal 0 -0 1
  outer loop
   vertex 144.14729309082031 120.57643890380859 100
   vertex 155.85270690917969 120.57643890380859 100
   vertex 166.6671142578125 125.055908203125 100
  endloop
 endfacet
 facet normal 0 -0 1
  outer loop
   vertex 166.6671142578125 125.055908203125 100
   vertex 174.944091796875 133.3328857421875 100
   vertex 179.42355346679688 144.14729309082031 100
  endloop
 endfacet
 facet normal 0 0 1
  outer loop
   vertex 179.42355346679688 144.14729309082031 100
   vertex 179.42355346679688 155.85270690917969 100
   vertex 174.944091796875 166.66709899902344 100
  endloop
 endfacet
 facet normal 0 0 1
  outer loop
   vertex 174.944091796875 166.66709899902344 100
   vertex 166.6671142578125 174.944091796875 100
   vertex 155.85270690917969 179.42355346679688 100
  endloop
 endfacet
 facet normal -0 0 1
  outer loop
   vertex 155.85270690917969 179.42355346679688 100
   vertex 144.14729309082031 179.42355346679688 100
   vertex 133.3328857421875 174.944091796875 100
  endloop
 endfacet
 facet normal -0 0 1
  outer loop
   vertex 133.3328857421875 174.944091796875 100
   vertex 125.055908203125 166.66709899902344 100
   vertex 120.57644653320312 155.85270690917969 100
  endloop
 endfacet
 facet normal -0 0 1
  outer loop
   vertex 120.57644653320312 155.85270690917969 100
   vertex 120.57644653320312 144.14729309082031 100
   vertex 125.055908203125 133.3328857421875 100
  endloop
 endfacet
 facet normal -0 -0 1
  outer loop
   vertex 125.055908203125 133.3328857421875 100
   vertex 133.3328857421875 125.055908203125 100
   vertex 144.14729309082031 120.57643890380859 100
  endloop
 endfacet
 facet normal 0 -0 1
  outer loop
   vertex 144.14729309082031 120.57643890380859 100
   vertex 166.6671142578125 125.055908203125 100
   vertex 179.42355346679688 144.14729309082031 100
  endloop
 endfacet
 facet normal 0 0 1
  outer loop
   vertex 179.42355346679688 144.14729309082031 100
   vertex 174.944091796875 166.66709899902344 100
   vertex 155.85270690917969 179.42355346679688 100
  endloop
 endfacet
 facet normal -0 0 1
  outer loop
   vertex 155.85270690917969 179.42355346679688 100
   vertex 133.3328857421875 174.944091796875 100
   vertex 120.57644653320312 155.85270690917969 100
  endloop
 endfacet
 facet normal -0 -0 1
  outer loop
   vertex 120.57644653320312 155.85270690917969 100
   vertex 125.055908203125 133.3328857421875 100
   vertex 144.14729309082031 120.57643890380859 100
  endloop
 endfacet
 facet normal 0 0 1
  outer loop
   vertex 144.14729309082031 120.57643890380859 100
   vertex 179.42355346679688 144.14729309082031 100
   vertex 155.85270690917969 179.42355346679688 100
  endloop
 endfacet
 facet normal -0 0 1
  outer loop
   vertex 155.85270690917969 179.42355346679688 100
   vertex 120.57644653320312 155.85270690917969 100
   vertex 144.14729309082031 120.57643890380859 100
  endloop
 endfacet
 facet normal -0.28169772643855301 -0.92863074376234167 -0.24143598045600048
  outer loop
   vertex 138.51950073242188 122.28361511230469 100
   vertex 150 150 -20
   vertex 144.14729309082031 120.57643890380859 100
  endloop
 endfacet
 facet normal -0.095117080082195063 -0.96574396367062365 -0.24143599091765591
  outer loop
   vertex 144.14729309082031 120.57643890380859 100
   vertex 150 150 -20
   vertex 150 120 100
  endloop
 endfacet
endsolid
